<svg width="192" height="181" viewBox="0 0 192 181" fill="none" xmlns="http://www.w3.org/2000/svg">
<path d="M108.285 29.6406C114.293 29.1399 114.293 27.1371 115.295 29.1399C116.296 31.1426 115.795 47.1646 114.794 48.166C113.993 48.9671 104.78 51.1701 100.274 52.1715C98.6078 51.6716 95.9766 49.5746 98.7587 45.183C100.785 41.8772 103.329 37.726 102.929 38.38L108.285 29.6406Z" fill="#041C41"/>
<path d="M98.7587 45.183C95.9766 49.5746 98.6078 51.6716 100.274 52.1715C104.78 51.1701 113.993 48.9671 114.794 48.166C115.795 47.1646 116.296 31.1426 115.295 29.1399C114.293 27.1371 114.293 29.1399 108.285 29.6406L102.929 38.38M98.7587 45.183C98.7631 45.1759 98.7676 45.1689 98.7721 45.1619C101.526 40.6679 102.701 38.751 102.929 38.38M98.7587 45.183C100.785 41.8772 103.329 37.726 102.929 38.38" stroke="black" stroke-width="0.2"/>
<path d="M52.5339 18.2878C51.5325 17.954 50.1306 16.8858 52.5339 15.2836C54.9372 13.6814 55.538 12.9471 55.538 12.7802C55.3711 11.2781 55.4379 8.37417 57.0401 8.77472C58.6423 9.17527 59.7104 7.60644 60.0442 6.77196C60.378 6.27128 61.346 5.57032 62.5477 6.77196C63.7493 7.97361 65.0511 8.94161 65.5518 9.27541C66.5531 9.94299 68.4557 11.3783 68.0552 11.7788C67.5545 12.2795 63.549 14.2823 64.0497 14.783C64.4503 15.1835 61.8801 17.2864 60.5449 18.2878L58.0415 20.2905V21.7926C58.6912 22.334 59.7204 23.1425 60.2537 23.4247C60.3624 23.3811 60.4606 23.3368 60.5449 23.2946C60.6856 23.5759 60.5422 23.5774 60.2537 23.4247C59.5012 23.7262 58.2407 23.9945 57.5408 23.2946C56.7397 22.4935 55.8718 21.9595 55.538 21.7926C54.3697 21.125 52.1333 19.4894 52.5339 18.2878Z" fill="black" stroke="black" stroke-width="0.2"/>
<path d="M55.538 20.5585V26.7995H63.549V24.296L60.5449 22.2933C59.3158 21.5432 57.495 19.9924 60.0442 19.7898C62.5934 19.5873 62.7753 19.0378 62.5477 18.7884L64.0497 17.7871V11.7788H59.5435V16.285L58.5422 16.285C58.3753 15.1168 57.7411 13.0807 56.5394 14.2823C55.3378 15.484 56.7063 16.1182 57.5408 16.285V18.7885C57.5408 19.9901 56.2056 20.4692 55.538 20.5585Z" fill="#A456F6"/>
<path d="M70.233 65.4427C71.8352 67.0449 76.2412 68.4468 78.244 68.9475C80.6473 67.7458 81.5819 119.851 81.7488 146.053L53.2097 147.055V123.022C62.4223 111.406 67.7296 83.4674 66.7282 64.4413C67.2289 64.1075 68.6308 63.8405 70.233 65.4427Z" fill="black" stroke="black" stroke-width="0.2"/>
<path d="M88.2577 45.5564L95.768 36.5441C97.1032 31.5372 101.977 23.5262 110.789 31.5372C111.79 32.8724 113.592 35.9433 112.791 37.5455C111.99 39.1477 110.455 39.5482 109.787 39.5482C109.515 39.5482 109.154 39.2149 109.465 38.0041C108.744 39.4917 107.41 41.551 105.782 41.551L99.2728 52.0654L88.2577 45.5564Z" fill="#D9D9D9" stroke="black" stroke-width="0.2"/>
<path d="M34.6843 104.243L12.1534 131.781H17.1602L21.1657 134.685L37.1877 146.301L50.2055 127.775C64.7254 109.751 62.7227 74.2018 62.222 71.1977H41.1932C36.3866 76.8054 34.8512 95.5644 34.6843 104.243Z" fill="black"/>
<path d="M17.1602 131.781H12.1534L34.6843 104.243C34.8512 95.5644 36.3866 76.8054 41.1932 71.1977H62.222C62.7227 74.2018 64.7254 109.751 50.2055 127.775L37.1877 146.301L21.1657 134.685M17.1602 131.781L38.1891 107.247C36.5869 101.639 41.1932 82.2128 43.6966 73.2004M17.1602 131.781L21.1657 134.685M21.1657 134.685L41.1932 110.752C42.0277 99.5699 44.4977 76.4048 47.7021 73.2004" stroke="black" stroke-width="0.2"/>
<path d="M59.7186 73.7011C58.8841 86.719 55.7131 114.357 49.7049 120.766C43.6966 127.174 36.5201 138.79 33.6829 143.797" stroke="black" stroke-width="0.2"/>
<path d="M51.7076 72.6998C49.8717 85.3838 45.9998 110.952 45.1987 111.753C44.1973 112.755 27.6747 137.789 25.1712 137.789H25.6719L29.1767 140.292C35.6856 131.781 48.7035 114.457 48.7035 113.255C48.7035 111.753 58.7172 79.2087 55.7131 73.7011" stroke="black" stroke-width="0.2"/>
<path d="M55.7131 119.264V146.801H61.2206M61.2206 146.801L60.2193 109.25M61.2206 146.801H66.7282M66.7282 146.801L64.2248 94.7299M66.7282 146.801C71.1342 146.801 71.5682 146.468 71.2344 146.301L66.7282 78.2073V73.7011L71.2344 76.2046C72.4026 99.5699 74.9394 146.301 75.7405 146.301C76.5416 146.301 78.7447 146.301 79.746 146.301L75.7405 78.2073" stroke="black" stroke-width="0.2"/>
<path d="M46.2001 39.1538C47.2057 33.6225 51.3738 30.1414 54.211 29.14V25.1346C57.2152 25.8021 63.7241 26.7367 65.7268 25.1346V28.6394V30.6421C67.062 30.3083 69.7323 30.1414 69.7323 32.1442C69.7323 34.1469 78.1397 46.3303 82.3433 52.1716L90.2604 41.1565L102.778 50.6696L108.285 49.6682V45.6627C108.285 44.461 110.622 46.831 111.79 48.1661H114.794C113.125 51.8378 108.886 60.8836 105.281 67.6929C101.676 74.5022 94.2693 74.8694 91.0165 74.2018C90.1744 75.1606 89.4099 76.0055 88.7584 76.7052C85.7543 77.2059 79.0451 78.2073 76.2412 78.2073C73.4374 78.2073 67.7296 73.868 65.2261 71.6984L40.1918 72.1991V71.1977V60.1826C42.3615 55.5095 45.1987 44.6613 46.2001 39.1538Z" fill="#CEECFE"/>
<path d="M65.2261 71.6984L40.1918 72.1991V71.1977V60.1826C42.3615 55.5095 45.1987 44.6613 46.2001 39.1538C47.2057 33.6225 51.3738 30.1414 54.211 29.14V25.1346C57.2151 25.8021 63.7241 26.7367 65.7268 25.1346C65.7268 28.3389 65.7268 28.8063 65.7268 28.6394V30.6421C67.062 30.3083 69.7323 30.1414 69.7323 32.1442C69.7323 34.1469 78.1397 46.3303 82.3433 52.1716M65.2261 71.6984C67.7296 73.868 73.4374 78.2073 76.2412 78.2073C79.0451 78.2073 85.7543 77.2059 88.7584 76.7052M65.2261 71.6984L47.7021 54.1744M88.7584 76.7052C89.4099 76.0055 90.1744 75.1606 91.0165 74.2018M88.7584 76.7052L91.0165 74.2018M102.778 50.6696L106.783 51.6709C103.699 58.8663 95.9992 68.5287 91.0165 74.2018M102.778 50.6696L90.2604 41.1565L82.3433 52.1716M102.778 50.6696L108.285 49.6682C108.285 48.8337 108.285 46.8643 108.285 45.6627C108.285 44.461 110.622 46.831 111.79 48.1661H114.794C113.125 51.8378 108.886 60.8836 105.281 67.6929C101.676 74.5022 94.2693 74.8694 91.0165 74.2018M74.7392 56.6778C76.7419 59.4816 78.244 58.1798 78.7447 57.1785L82.3433 52.1716M74.7392 56.6778C74.0407 55.6999 72.3475 53.5974 70.233 51.0329M74.7392 56.6778L70.233 51.0329M57.7158 36.1496C60.8678 39.845 66.2847 46.2443 70.233 51.0329M70.233 51.0329C70.3999 47.407 70.5334 40.055 69.7323 39.6545" stroke="black" stroke-width="0.2"/>
<path d="M24.7171 161.316C21.9072 157.311 26.557 151.972 29.2331 149.803C28.564 149.637 26.5235 148.602 23.7136 145.799C20.9037 142.996 17.8596 145.632 16.6888 147.301L11.152 143.797L3.14102 153.808L3.64279 154.308C12.0056 160.815 28.932 173.729 29.7348 173.329C30.5376 172.928 30.0693 170.159 29.7348 168.824C29.233 167.99 27.527 165.32 24.7171 161.316Z" fill="#FCB331" stroke="#675F5F" stroke-width="0.2"/>
<path d="M0.136906 157.173L3.09178 153.31H3.58425L29.6774 173.338L26.7307 180.347L10.479 165.449V163.794C10.085 156.29 7.68824 159.932 6.53912 162.69L0.136906 157.173Z" fill="#1C2A46" stroke="#675F5F" stroke-width="0.2"/>
<path d="M18.8292 132.281L34.1836 143.752L29.0654 150.306C27.8712 149.214 25.0733 146.81 23.4355 145.937C21.7977 145.063 20.3646 145.572 19.8528 145.937L16.7819 148.668L11.152 143.752L18.8292 132.281Z" fill="#A456F6" stroke="#8B8383" stroke-width="0.2"/>
<path d="M6.14514 150.306L7.6472 152.81L6.64583 155.313" stroke="black" stroke-width="0.2"/>
<path d="M10.6513 144.799L16.1589 149.805C16.1589 152.81 17.2604 159.519 21.6664 162.323" stroke="black" stroke-width="0.2"/>
<path d="M21.7016 157.305C22.2284 157.224 22.7515 157.141 23.2667 157.052C23.4949 157.012 23.9215 156.988 24.1589 157.048C24.5144 157.137 24.8733 157.681 25.2043 157.868C25.4803 158.023 25.7506 158.534 26.0614 158.534" stroke="#2D2D2D" stroke-width="0.5" stroke-linecap="round"/>
<path d="M21.8879 159.726C22.3746 159.215 22.8188 159.018 23.4716 159.018C23.599 159.018 23.7273 159.014 23.8546 159.018C24.0936 159.027 24.4441 159.491 24.6081 159.652C24.9675 160.005 25.3397 160.257 25.815 160.38C25.989 160.426 26.0647 160.509 26.2559 160.509C26.4136 160.509 26.4471 160.553 26.583 160.621" stroke="#2D2D2D" stroke-width="0.5" stroke-linecap="round"/>
<path d="M21.7016 155.851C22.3272 155.438 23.2668 155.143 24.0305 155.143C24.2577 155.143 24.4587 155.004 24.6992 155.085C25.0351 155.199 25.2954 155.503 25.5438 155.737C25.7927 155.972 26.103 156.219 26.376 156.427C26.612 156.606 26.8446 156.616 27.1047 156.746" stroke="#2D2D2D" stroke-width="0.5" stroke-linecap="round"/>
<path d="M27.6346 158.333C28.5136 158.333 29.3927 158.317 30.2707 158.317C30.6372 158.317 30.7857 158.523 30.948 158.797C30.9869 158.862 31.0776 158.938 31.1035 159.005C31.1271 159.066 31.1164 159.138 31.1291 159.2C31.1532 159.32 31.2292 159.681 31.1291 159.78C30.9474 159.96 30.8629 160.146 30.5926 160.24C30.2373 160.362 29.6913 160.395 29.3651 160.182C29.0825 159.997 28.9449 159.651 29.2569 159.434C29.5685 159.217 29.886 159.481 30.0758 159.702C30.2964 159.959 30.5039 160.294 30.5385 160.628C30.5575 160.811 30.6286 161.201 30.3731 161.266C29.9949 161.362 29.4637 161.33 29.1082 161.193C28.8398 161.088 28.6819 160.896 28.5028 160.696C28.3876 160.567 28.236 160.447 28.1445 160.305C28.0625 160.177 27.9133 160.064 27.8128 159.944C27.6962 159.806 27.5937 159.672 27.5106 159.515C27.43 159.362 27.2054 159.24 27.174 159.067" stroke="#393838" stroke-width="0.5" stroke-linecap="round"/>
<path d="M79.6677 165.648C74.945 164.373 75.0961 157.295 75.762 153.915C75.1413 154.215 72.9117 154.728 68.9585 154.375C65.0053 154.022 64.3561 157.997 64.5256 160.028L58.0295 160.884L58.2894 173.702L58.9953 173.765C69.5853 173.406 90.8553 172.481 91.2153 171.66C91.5754 170.838 89.4418 169.011 88.33 168.2C87.4103 167.881 84.3903 166.924 79.6677 165.648Z" fill="#FCB331" stroke="#675F5F" stroke-width="0.2"/>
<path d="M58.1376 178.211L57.9329 173.352L58.3111 173.037L91.1771 171.704L93.4039 178.974L71.3811 177.943L70.3208 176.671C65.2118 171.161 65.7038 175.493 66.5884 178.347L58.1376 178.211Z" fill="#1C2A46" stroke="#675F5F" stroke-width="0.2"/>
<path d="M56.5494 147.123L75.6876 146.097L75.9553 154.409C74.3385 154.335 70.6505 154.281 68.833 154.659C67.0155 155.037 66.2415 156.346 66.0817 156.954L65.4726 161.018L58.0005 160.849L56.5494 147.123Z" fill="#A456F6" stroke="#8B8383" stroke-width="0.2"/>
<path d="M58.3537 169.089L61.1106 170.05L61.9451 172.614" stroke="black" stroke-width="0.2"/>
<path d="M58.2864 161.973L65.7229 162.291C67.6471 164.598 72.7903 169.045 77.9698 168.376" stroke="black" stroke-width="0.2"/>
<path d="M74.7827 164.5C75.1358 164.1 75.4843 163.702 75.8228 163.303C75.9728 163.127 76.285 162.835 76.5054 162.729C76.8353 162.569 77.4598 162.757 77.8333 162.688C78.1446 162.631 78.6798 162.85 78.9184 162.651" stroke="#2D2D2D" stroke-width="0.5" stroke-linecap="round"/>
<path d="M76.4769 166.24C76.5234 165.536 76.7383 165.1 77.2396 164.682C77.3375 164.601 77.4331 164.515 77.5338 164.437C77.7228 164.29 78.2891 164.422 78.5182 164.441C79.0202 164.481 79.4678 164.437 79.9117 164.227C80.0743 164.15 80.1857 164.166 80.3326 164.043C80.4536 163.942 80.5074 163.955 80.6554 163.92" stroke="#2D2D2D" stroke-width="0.5" stroke-linecap="round"/>
<path d="M73.8519 163.383C74.0679 162.665 74.6005 161.837 75.187 161.348C75.3614 161.202 75.4264 160.966 75.6633 160.875C75.9943 160.748 76.3886 160.814 76.7296 160.835C77.0713 160.856 77.4677 160.847 77.8103 160.831C78.1063 160.818 78.291 160.676 78.5741 160.609" stroke="#2D2D2D" stroke-width="0.5" stroke-linecap="round"/>
<path d="M79.998 161.489C80.6731 160.926 81.3377 160.351 82.012 159.789C82.2934 159.554 82.5394 159.617 82.8393 159.723C82.9113 159.749 83.0294 159.749 83.0921 159.783C83.1492 159.815 83.187 159.877 83.237 159.917C83.3317 159.993 83.6214 160.222 83.608 160.362C83.5837 160.617 83.6384 160.814 83.4905 161.059C83.2961 161.38 82.8979 161.755 82.5108 161.8C82.1753 161.839 81.8484 161.662 81.9488 161.296C82.049 160.929 82.462 160.929 82.7493 160.977C83.0832 161.033 83.457 161.157 83.6976 161.392C83.8296 161.52 84.1341 161.774 83.9793 161.987C83.7502 162.303 83.3223 162.62 82.961 162.741C82.6881 162.833 82.4435 162.787 82.1778 162.748C82.0068 162.722 81.8139 162.728 81.6522 162.677C81.5072 162.631 81.3206 162.64 81.1668 162.613C80.9883 162.581 80.8238 162.543 80.6593 162.476C80.4999 162.411 80.2491 162.461 80.1138 162.348" stroke="#393838" stroke-width="0.5" stroke-linecap="round"/>
<path d="M140.329 60.1826H184.389C184.389 63.5008 181.699 66.1908 178.381 66.1908H146.337C143.019 66.1908 140.329 63.5008 140.329 60.1826Z" fill="#1C2A46"/>
<path d="M140.329 60.1826H169.369C169.369 63.5008 166.679 66.1908 163.361 66.1908H146.337C143.019 66.1908 140.329 63.5008 140.329 60.1826Z" fill="black"/>
<path d="M109.186 39.1538C109.186 41.8637 106.99 44.0605 104.28 44.0605C101.57 44.0605 99.3729 41.8637 99.3729 39.1538C99.3729 36.4439 101.57 34.247 104.28 34.247C106.99 34.247 109.186 36.4439 109.186 39.1538Z" fill="black" stroke="black" stroke-width="0.2"/>
<path d="M104.28 36.0318L114.931 30.1414L117.298 33.6757L106.647 40.1551L104.28 36.0318Z" fill="black" stroke="black" stroke-width="0.2"/>
<circle cx="104.28" cy="39.1538" r="2.94412" fill="black" stroke="black" stroke-width="0.12"/>
<path d="M136.223 29.6407C136.223 35.9542 131.552 41.0564 125.809 41.0564C120.066 41.0564 115.395 35.9542 115.395 29.6407C115.395 23.3273 120.066 18.2251 125.809 18.2251C131.552 18.2251 136.223 23.3273 136.223 29.6407Z" fill="#A456F6" stroke="black" stroke-width="0.2"/>
<path d="M188.896 0.100235H149.842C147.839 0.100235 147.339 1.76919 147.339 2.60367V58.1798C147.339 59.782 149.341 60.5164 150.343 60.6833H189.897C191.499 60.6833 191.9 58.3467 191.9 57.1785V3.10435C191.9 1.50216 189.897 0.434026 188.896 0.100235Z" fill="#1C2A46" stroke="black" stroke-width="0.2"/>
<path d="M172.137 0.100235H130.012C127.851 0.100235 127.311 1.78298 127.311 2.62436V58.6598C127.311 60.2753 129.471 61.0157 130.552 61.184H173.217C174.945 61.184 175.377 58.8281 175.377 57.6502V3.12918C175.377 1.51374 173.217 0.436785 172.137 0.100235Z" fill="#A456F6" stroke="black" stroke-width="0.2"/>
<path d="M166.722 6.10847H134.965C132.847 6.10847 132.318 7.45769 132.318 8.1323V51.6446C132.318 53.6684 134.082 54.1744 134.965 54.1744H166.722C168.84 54.1744 169.369 51.8132 169.369 50.6327V8.1323C169.369 6.51324 167.605 6.10847 166.722 6.10847Z" stroke="black" stroke-width="0.2"/>
<path d="M150.843 13.1181L144.835 26.6366L149.842 27.638L148.34 36.6503L156.852 22.1304H151.845L154.849 13.6188L150.843 13.1181Z" fill="black" stroke="#CFCFCF" stroke-width="0.3"/>
<line x1="138.326" y1="43.0591" x2="159.355" y2="43.0591" stroke="black" stroke-width="0.2"/>
<line x1="138.326" y1="45.0619" x2="159.355" y2="45.0619" stroke="black" stroke-width="0.2"/>
<line x1="138.326" y1="47.0646" x2="159.355" y2="47.0646" stroke="black" stroke-width="0.2"/>
<rect x="133.419" y="21.2291" width="1.80275" height="8.81235" rx="0.9" stroke="black" stroke-width="0.2"/>
<path d="M153.347 138.133V66.1908H145.336V145.299" stroke="black" stroke-width="0.2"/>
<path d="M177.38 138.133V66.1908H169.369V145.299" stroke="black" stroke-width="0.2"/>
<circle cx="104.28" cy="39.1538" r="1.00137" fill="black"/>
</svg>
