<svg width="25" height="21" viewBox="0 0 25 21" fill="none" xmlns="http://www.w3.org/2000/svg">
<path d="M11.6662 12.2515C11.4945 12.2515 11.3327 12.2085 11.1808 12.1223C11.0323 12.0394 10.9084 11.9149 10.8094 11.749C10.7136 11.5863 10.6575 11.3933 10.641 11.17H10.2398L10.2398 10.8637H10.6459C10.6756 10.5447 10.7747 10.2879 10.9431 10.0932C11.1148 9.89863 11.3459 9.79813 11.6365 9.79175V10.5096C11.3988 10.5287 11.2551 10.6468 11.2056 10.8637L12.1516 10.8637C12.2111 10.634 12.2705 10.449 12.3299 10.3086C12.3894 10.1682 12.4851 10.047 12.6172 9.94489C12.7493 9.8428 12.9292 9.79175 13.1571 9.79175C13.4444 9.79175 13.6788 9.89065 13.8604 10.0885C14.042 10.2895 14.146 10.5479 14.1724 10.8637H14.5736V11.17H14.1724C14.146 11.4763 14.0503 11.7203 13.8852 11.9022C13.7201 12.0872 13.4922 12.1909 13.2017 12.2132V11.4906C13.2974 11.4811 13.38 11.4476 13.4493 11.3901C13.5219 11.3359 13.5731 11.2625 13.6028 11.17H12.6667C12.604 11.4093 12.5429 11.5975 12.4835 11.7347C12.4273 11.8751 12.3332 11.9963 12.2012 12.0984C12.0724 12.2005 11.8941 12.2515 11.6662 12.2515ZM13.1917 10.4904C13.0828 10.4904 12.9936 10.5223 12.9243 10.5862C12.8582 10.65 12.8038 10.7425 12.7608 10.8637H13.6177C13.6012 10.7489 13.5566 10.6579 13.484 10.5909C13.4113 10.5239 13.3139 10.4904 13.1917 10.4904ZM11.1957 11.17C11.2188 11.2912 11.27 11.3853 11.3492 11.4523C11.4285 11.5225 11.5242 11.5576 11.6365 11.5576C11.7455 11.5576 11.833 11.5241 11.899 11.4571C11.9651 11.3901 12.0195 11.2944 12.0625 11.17L11.1957 11.17Z" fill="#A456F6"/>
<path d="M8.19409 7.94295H0.764623V0.764623H23.8785V7.94295H16.449" stroke="#A456F6" stroke-width="1.5"/>
<path d="M8.19406 3.95503V17.5141H16.449V3.95503" stroke="#A456F6" stroke-width="1.5"/>
<path d="M5.71775 11.4619V20.2354H18.9257V11.4619" stroke="#A456F6" stroke-width="1.5"/>
<line x1="3.24118" y1="3.98789" x2="21.4021" y2="3.98789" stroke="#A456F6" stroke-width="1.5"/>
</svg>
