<svg width="21" height="27" viewBox="0 0 21 27" fill="none" xmlns="http://www.w3.org/2000/svg">
<path opacity="0.5" d="M10.5804 24.2146C11.0524 25.0962 11.0526 25.0961 11.0528 25.096L11.0533 25.0957L11.0547 25.0949L11.0591 25.0926L11.0741 25.0844L11.1287 25.0546C11.1756 25.0288 11.2432 24.9913 11.329 24.9427C11.5006 24.8456 11.7455 24.704 12.0439 24.5235C12.6397 24.163 13.4538 23.6442 14.3266 23.0107C16.0311 21.7735 18.1162 19.9888 19.112 17.9998C19.6399 16.9456 19.8723 15.619 19.9582 14.3055C20.0452 12.9743 19.9865 11.5659 19.8739 10.2932C19.761 9.01708 19.5921 7.85683 19.4516 7.01646C19.3813 6.59565 19.3179 6.25351 19.2718 6.01532C19.2487 5.89619 19.23 5.80297 19.2168 5.7388L19.2015 5.6647L19.1973 5.64472L19.1961 5.63912L19.1957 5.63743L19.1956 5.63687C19.1956 5.63667 19.1955 5.6365 18.2178 5.84657L19.1955 5.6365L19.0921 5.15499L18.6473 4.94348L11.0098 1.31151L10.5804 1.10729L10.1509 1.31151L2.51342 4.94348L2.09457 5.14266L1.97607 5.59106L2.94288 5.84657C1.97607 5.59106 1.97602 5.59126 1.97595 5.59149L1.97579 5.59211L1.97532 5.59389L1.97381 5.59965L1.96859 5.61979L1.9498 5.69359C1.93376 5.75732 1.91096 5.84963 1.88295 5.96749C1.82696 6.20312 1.75006 6.54137 1.66484 6.95786C1.49471 7.78935 1.28992 8.94007 1.15305 10.2131C1.01658 11.4825 0.945016 12.897 1.05093 14.2495C1.15498 15.5781 1.43592 16.9274 2.06181 18.0259C3.06274 20.0043 5.13706 21.7789 6.83415 23.0107C7.7069 23.6442 8.52098 24.163 9.11685 24.5235C9.41524 24.704 9.6601 24.8456 9.83171 24.9427C9.91754 24.9913 9.98513 25.0288 10.032 25.0546L10.0866 25.0844L10.1016 25.0926L10.106 25.0949L10.1074 25.0957L10.1079 25.096C10.1081 25.0961 10.1083 25.0962 10.5804 24.2146ZM10.5804 24.2146L11.0524 25.0962L10.5804 25.349L10.1083 25.0962L10.5804 24.2146Z" stroke="#9EAFB7" stroke-width="2"/>
</svg>
