<svg width="25" height="19" viewBox="0 0 25 19" fill="none" xmlns="http://www.w3.org/2000/svg">
<rect x="0.837715" y="9.83334" width="20.4015" height="10.9471" rx="1" transform="rotate(-30 0.837715 9.83334)" fill="#A767F1"/>
<circle cx="21.765" cy="3.78431" r="3.23438" transform="rotate(-30 21.765 3.78431)" fill="#F9F6FC"/>
<circle cx="14.0937" cy="3.18558" r="0.373198" transform="rotate(-30 14.0937 3.18558)" fill="#D8CDF1"/>
<circle cx="14.8402" cy="4.47844" r="0.373198" transform="rotate(-30 14.8402 4.47844)" fill="#D8CDF1"/>
<circle cx="15.5867" cy="5.77131" r="0.373198" transform="rotate(-30 15.5867 5.77131)" fill="#D8CDF1"/>
<circle cx="16.3322" cy="7.06418" r="0.373198" transform="rotate(-30 16.3322 7.06418)" fill="#D8CDF1"/>
<circle cx="17.0787" cy="8.3568" r="0.373198" transform="rotate(-30 17.0787 8.3568)" fill="#D8CDF1"/>
<circle cx="17.8252" cy="9.64967" r="0.373198" transform="rotate(-30 17.8252 9.64967)" fill="#D8CDF1"/>
<circle cx="18.5717" cy="10.9425" r="0.373198" transform="rotate(-30 18.5717 10.9425)" fill="#D8CDF1"/>
<circle cx="3.23524" cy="14.4826" r="3.23438" transform="rotate(-30 3.23524 14.4826)" fill="#F9F6FC"/>
</svg>
