<svg width="47" height="71" viewBox="0 0 47 71" fill="none" xmlns="http://www.w3.org/2000/svg">
<path d="M23.309 70.4429C43.7691 61.0151 47.6093 34.9989 45.6635 16.7391L23.309 0.623712L0.954616 16.7391C-0.99126 34.9989 2.84903 61.0151 23.309 70.4429Z" fill="#011A51" stroke="#020151"/>
<circle cx="22.8947" cy="35.8648" r="10.1088" fill="#FB847C" stroke="#E0EBFE" stroke-width="3"/>
<mask id="mask0_1_716" style="mask-type:alpha" maskUnits="userSpaceOnUse" x="13" y="26" width="20" height="19">
<circle cx="22.8945" cy="35.8647" r="7.62122" fill="#FB847C" stroke="#DAFFF3" stroke-width="3"/>
</mask>
<g mask="url(#mask0_1_716)">
<path d="M25.3845 32.1587L25.4752 32.349L25.6055 32.3946C25.6111 32.4074 25.6179 32.4246 25.6255 32.4472C25.6655 32.5661 25.6964 32.7474 25.7152 32.9842C25.7436 33.3424 25.7396 33.7405 25.7358 34.1054C25.7346 34.2242 25.7335 34.3395 25.7335 34.4488V34.6046L25.8211 34.7334C26.0257 35.0341 26.1023 35.2887 26.1172 35.5055C26.1323 35.7252 26.0863 35.9406 25.9949 36.1644C25.9017 36.3928 25.7681 36.6144 25.6172 36.8504C25.5964 36.8829 25.5749 36.9163 25.5529 36.9504C25.4265 37.1464 25.2852 37.3654 25.1855 37.5748L25.1681 37.6113L25.1567 37.65C24.7968 38.8782 23.9256 39.6784 23.0824 39.7992C22.3098 39.9098 21.2875 39.4722 20.5382 37.604L20.5095 37.5322L20.4606 37.4724C19.3492 36.1112 19.6894 35.1625 19.8378 35.0067L19.9184 34.9222L19.9537 34.8109C20.1766 34.1088 20.1766 33.4126 20.1765 32.6128C20.1765 32.5979 20.1765 32.583 20.1765 32.568C20.1765 32.0555 20.4927 31.5619 21.0175 31.1717C21.5425 30.7812 22.1854 30.5663 22.6564 30.5663C23.1048 30.5663 23.6495 30.6161 24.1147 30.7543C24.5997 30.8985 24.8816 31.1026 24.9864 31.3228L25.3845 32.1587ZM25.5884 32.3627C25.5885 32.3625 25.5895 32.3638 25.5915 32.3669C25.5893 32.3644 25.5884 32.3628 25.5884 32.3627Z" fill="white" stroke="white"/>
<path d="M22.8741 41.1356L22.8944 41.1364L22.9147 41.1356C23.7231 41.1031 24.5995 40.7482 25.5548 39.9382C26.4887 40.1543 27.5264 40.4962 28.348 41.0957C29.1501 41.6809 29.7511 42.5125 29.8399 43.7674C29.243 43.9864 28.2846 44.1571 27.1245 44.2746C25.7844 44.4104 24.2572 44.4687 22.8944 44.4788C21.5316 44.4687 20.0045 44.4104 18.6643 44.2746C17.5042 44.1571 16.5458 43.9864 15.9489 43.7674C16.0377 42.5125 16.6387 41.6809 17.4408 41.0957C18.2624 40.4962 19.3002 40.1543 20.234 39.9382C21.1893 40.7482 22.0657 41.1031 22.8741 41.1356Z" fill="white" stroke="white"/>
</g>
</svg>
