<svg width="104" height="70" viewBox="0 0 104 70" fill="none" xmlns="http://www.w3.org/2000/svg">
<g clip-path="url(#clip0_1_652)">
<path d="M48.495 57.0886C46.974 49.64 45.0727 47.1567 45.0727 47.1567L44.3463 46.5862L43.4729 45.899L43.4771 45.8107L43.2699 45.7394L43.2212 45.7011L43.1415 45.6391L43.1287 45.653L43.1016 45.6814L39.149 44.3207L34.1345 42.5956L31.8124 39.5387C31.4342 39.0409 30.9474 38.6385 30.3899 38.3631C29.8325 38.0878 29.2197 37.9469 28.5995 37.9515L21.1837 38.0071C20.181 38.0146 19.2173 38.4018 18.4821 39.0924L13.6078 43.6716L6.01264 47.3454L5.99982 47.3324L5.92006 47.3901L4.74654 47.9584L4.79497 48.2137L4.06863 48.7446C4.06863 48.7446 2.16736 51.0553 0.646334 57.9861C0.259402 59.7496 0.0689397 63.5325 0.000193192 68.1942C-0.00325994 68.43 0.0396091 68.6641 0.126307 68.883C0.213004 69.1019 0.341801 69.3012 0.505208 69.4692C0.668615 69.6372 0.863372 69.7706 1.07816 69.8618C1.29294 69.9529 1.52346 69.9998 1.75632 69.9999H42.3235V69.9999H47.3868C47.6195 69.9998 47.8499 69.9528 48.0645 69.8618C48.2792 69.7708 48.4738 69.6376 48.6372 69.4697C48.8006 69.3019 48.9294 69.1029 49.0162 68.8843C49.1031 68.6656 49.1461 68.4317 49.143 68.196C49.0758 63.1234 48.8854 59.001 48.495 57.0886Z" fill="#011A51"/>
<path d="M53.7 6.49573C52.1217 6.49573 50.6081 7.13073 49.492 8.26104C48.376 9.39136 47.749 10.9244 47.749 12.5229C47.749 14.1214 48.376 15.6544 49.492 16.7848C50.6081 17.9151 52.1217 18.5501 53.7 18.5501H98.0491C99.6274 18.5501 101.141 17.9151 102.257 16.7848C103.373 15.6544 104 14.1214 104 12.5229C104 10.9244 103.373 9.39136 102.257 8.26104C101.141 7.13073 99.6274 6.49573 98.0491 6.49573H53.7Z" fill="#E5E5E5"/>
<path d="M53.6997 7.71558C52.4409 7.71558 51.2335 8.22207 50.3434 9.12363C49.4532 10.0252 48.9531 11.248 48.9531 12.523C48.9531 13.798 49.4532 15.0207 50.3434 15.9223C51.2335 16.8239 52.4409 17.3304 53.6997 17.3304H98.0488C99.3077 17.3304 100.515 16.8239 101.405 15.9223C102.295 15.0207 102.795 13.798 102.795 12.523C102.795 11.248 102.295 10.0252 101.405 9.12363C100.515 8.22207 99.3077 7.71558 98.0488 7.71558H53.6997Z" fill="white"/>
<path d="M26.0563 35.1299C31.4221 35.1299 35.7718 30.7245 35.7718 25.2901C35.7718 19.8557 31.4221 15.4502 26.0563 15.4502C20.6906 15.4502 16.3408 19.8557 16.3408 25.2901C16.3408 30.7245 20.6906 35.1299 26.0563 35.1299Z" fill="#9E616A"/>
<path d="M23.5709 34.6483C23.5294 34.5557 23.4881 34.4628 23.4468 34.3696C23.4627 34.3701 23.4784 34.3725 23.4943 34.3729L23.5709 34.6483Z" fill="#2F2E41"/>
<path d="M16.0704 15.8977C16.5618 15.5007 17.1361 15.1354 17.7643 15.1559C18.3926 15.1764 19.0297 15.7511 18.8995 16.3739C20.0535 14.3046 21.8902 12.713 24.0874 11.8786C26.2845 11.0442 28.7017 11.0202 30.9145 11.8109C32.476 12.3689 34.0072 13.4851 34.3659 15.1223C34.458 15.5425 34.4777 16.0033 34.7368 16.3446C35.0635 16.7749 35.6885 16.8722 36.2032 16.7208C36.2083 16.7193 36.2134 16.7178 36.2186 16.7162C36.3055 16.6862 36.3994 16.6832 36.488 16.7078C36.5766 16.7323 36.6559 16.7832 36.7157 16.8539C36.7754 16.9246 36.8128 17.0118 36.8231 17.1043C36.8334 17.1967 36.816 17.2902 36.7732 17.3725L36.3314 18.2071C36.8884 18.3328 37.4671 18.3203 38.0182 18.1707C38.1098 18.1464 38.2065 18.1514 38.2952 18.185C38.3838 18.2185 38.4601 18.279 38.5134 18.3582C38.5668 18.4374 38.5946 18.5314 38.5931 18.6272C38.5917 18.7231 38.561 18.8161 38.5052 18.8936C37.0484 20.9193 34.6146 22.2275 32.1309 22.2121C30.3656 22.2012 28.5822 21.585 26.8642 21.9961C26.1995 22.1552 25.5785 22.4629 25.0466 22.8968C24.5147 23.3306 24.0855 23.8796 23.7904 24.5033C23.4953 25.1271 23.3419 25.8099 23.3413 26.5015C23.3408 27.1932 23.4931 27.8762 23.7872 28.5005C23.2594 27.9158 22.2391 28.0543 21.6993 28.6275C21.1594 29.2008 21.0196 30.0564 21.074 30.8467C21.1572 32.0554 21.6248 33.1943 22.1177 34.3028C17.9849 34.171 14.0759 31.2348 12.7601 27.2634C11.4388 23.2754 12.8236 18.5209 16.0704 15.8977Z" fill="#2F2E41"/>
<path opacity="0.2" d="M9.5625 54.8398L12.2875 69.8557L13.9225 69.9999L9.5625 54.8398Z" fill="black"/>
<path opacity="0.2" d="M39.5788 53.7075L36.8538 69.845L35.2188 70L39.5788 53.7075Z" fill="black"/>
<path d="M18.3945 10.8441C17.872 11.0651 17.3269 10.8229 17.0982 10.2684C16.8661 9.70533 17.0829 9.13377 17.6137 8.90927C18.1446 8.68474 18.6801 8.92749 18.916 9.49961C19.1483 10.0632 18.9339 10.616 18.3945 10.8441ZM17.3937 7.80102L16.9782 7.97671C16.8745 8.02007 16.7584 8.02241 16.653 7.98326C16.5476 7.94411 16.4605 7.86631 16.409 7.76527L16.3885 7.72456C15.9415 6.9081 15.8903 5.91581 16.2372 4.7768C16.5585 3.75505 16.692 3.03646 16.4236 2.38545C16.1133 1.63276 15.4506 1.39698 14.6056 1.73854C14.2778 1.87714 14.1735 1.87493 13.9156 2.13407C13.8595 2.19112 13.7926 2.23615 13.719 2.26646C13.6453 2.29678 13.5664 2.31176 13.4869 2.31051C13.4101 2.3096 13.3342 2.29302 13.2638 2.26176C13.1934 2.2305 13.13 2.18521 13.0772 2.12858C12.9756 2.01945 12.9187 1.87535 12.918 1.72536C12.9172 1.57538 12.9727 1.4307 13.0732 1.32054C13.5067 0.860921 14.0296 0.497305 14.6088 0.252635C16.4245 -0.515206 17.3384 0.618401 17.7567 1.63287C18.1658 2.62514 17.9357 3.5458 17.5659 4.73815C17.256 5.72892 17.2741 6.46307 17.6261 7.19303C17.6515 7.24822 17.6656 7.30804 17.6676 7.3689C17.6697 7.42975 17.6595 7.4904 17.6378 7.54718C17.6161 7.60397 17.5833 7.65572 17.5413 7.69934C17.4994 7.74296 17.4492 7.77755 17.3937 7.80101L17.3937 7.80102Z" fill="#FF897E"/>
<path d="M63.4963 15.3976H54.6725C54.6444 15.3977 54.6167 15.3923 54.5907 15.3816C54.5647 15.3709 54.5411 15.355 54.5213 15.335C54.5014 15.315 54.4856 15.2912 54.4748 15.265C54.464 15.2388 54.4585 15.2107 54.4585 15.1823C54.4585 15.1539 54.464 15.1258 54.4748 15.0996C54.4856 15.0734 54.5014 15.0496 54.5213 15.0296C54.5411 15.0096 54.5647 14.9937 54.5907 14.983C54.6167 14.9723 54.6444 14.9669 54.6725 14.967H63.4963C63.5524 14.9674 63.6061 14.9903 63.6456 15.0306C63.6852 15.0709 63.7074 15.1255 63.7074 15.1823C63.7074 15.2391 63.6852 15.2937 63.6456 15.334C63.6061 15.3743 63.5524 15.3972 63.4963 15.3976Z" fill="#FF897E"/>
<path d="M74.6897 15.4691H65.8658C65.8378 15.4693 65.81 15.4639 65.7841 15.4531C65.7581 15.4424 65.7345 15.4266 65.7146 15.4066C65.6947 15.3866 65.6789 15.3628 65.6682 15.3366C65.6574 15.3103 65.6519 15.2822 65.6519 15.2538C65.6519 15.2254 65.6574 15.1973 65.6682 15.1711C65.6789 15.1449 65.6947 15.1211 65.7146 15.1011C65.7345 15.0811 65.7581 15.0653 65.7841 15.0545C65.81 15.0438 65.8378 15.0384 65.8658 15.0386H74.6897C74.7177 15.0384 74.7455 15.0438 74.7714 15.0545C74.7974 15.0653 74.821 15.0811 74.8409 15.1011C74.8608 15.1211 74.8766 15.1449 74.8873 15.1711C74.8981 15.1973 74.9036 15.2254 74.9036 15.2538C74.9036 15.2822 74.8981 15.3103 74.8873 15.3366C74.8766 15.3628 74.8608 15.3866 74.8409 15.4066C74.821 15.4266 74.7974 15.4424 74.7714 15.4531C74.7455 15.4639 74.7177 15.4693 74.6897 15.4691Z" fill="#FF897E"/>
<path d="M85.8831 15.5409H77.0592C77.0031 15.5405 76.9494 15.5176 76.9099 15.4773C76.8703 15.437 76.8481 15.3824 76.8481 15.3256C76.8481 15.2688 76.8703 15.2142 76.9099 15.1739C76.9494 15.1336 77.0031 15.1107 77.0592 15.1104H85.8831C85.9111 15.1102 85.9389 15.1156 85.9648 15.1263C85.9908 15.1371 86.0144 15.1529 86.0343 15.1729C86.0542 15.1929 86.07 15.2167 86.0807 15.2429C86.0915 15.2691 86.097 15.2972 86.097 15.3256C86.097 15.354 86.0915 15.3821 86.0807 15.4083C86.07 15.4345 86.0542 15.4583 86.0343 15.4783C86.0144 15.4984 85.9908 15.5142 85.9648 15.5249C85.9389 15.5356 85.9111 15.5411 85.8831 15.5409H85.8831Z" fill="#FF897E"/>
<path d="M97.0769 15.6126H88.2531C88.197 15.6123 88.1433 15.5894 88.1037 15.5491C88.0642 15.5088 88.042 15.4542 88.042 15.3974C88.042 15.3405 88.0642 15.286 88.1037 15.2457C88.1433 15.2054 88.197 15.1825 88.2531 15.1821H97.0769C97.133 15.1825 97.1867 15.2054 97.2263 15.2457C97.2658 15.286 97.288 15.3405 97.288 15.3974C97.288 15.4542 97.2658 15.5088 97.2263 15.5491C97.1867 15.5894 97.133 15.6123 97.0769 15.6126Z" fill="#FF897E"/>
<path d="M59.0648 13.4164C59.9705 13.4164 60.7048 12.6728 60.7048 11.7554C60.7048 10.8381 59.9705 10.0945 59.0648 10.0945C58.159 10.0945 57.4248 10.8381 57.4248 11.7554C57.4248 12.6728 58.159 13.4164 59.0648 13.4164Z" fill="#FF897E"/>
<path d="M70.326 13.4164C71.2317 13.4164 71.966 12.6728 71.966 11.7554C71.966 10.8381 71.2317 10.0945 70.326 10.0945C69.4203 10.0945 68.686 10.8381 68.686 11.7554C68.686 12.6728 69.4203 13.4164 70.326 13.4164Z" fill="#FF897E"/>
<path d="M81.5872 13.4164C82.493 13.4164 83.2272 12.6728 83.2272 11.7554C83.2272 10.8381 82.493 10.0945 81.5872 10.0945C80.6815 10.0945 79.9473 10.8381 79.9473 11.7554C79.9473 12.6728 80.6815 13.4164 81.5872 13.4164Z" fill="#FF897E"/>
<path d="M92.848 13.4164C93.7537 13.4164 94.488 12.6728 94.488 11.7554C94.488 10.8381 93.7537 10.0945 92.848 10.0945C91.9422 10.0945 91.208 10.8381 91.208 11.7554C91.208 12.6728 91.9422 13.4164 92.848 13.4164Z" fill="#FF897E"/>
<circle cx="3.19444" cy="3.19444" r="3.19444" transform="matrix(1 0 0 -1 48 38.3889)" fill="#FB847C"/>
</g>
<defs>
<clipPath id="clip0_1_652">
<rect width="104" height="70" fill="white"/>
</clipPath>
</defs>
</svg>
