<svg width="337" height="159" viewBox="0 0 337 159" fill="none" xmlns="http://www.w3.org/2000/svg">
<rect width="337" height="159" rx="8" fill="#201E1E"/>
<path d="M68.0632 46.6402V57.0002H66.4672V46.6402H68.0632Z" fill="#767171"/>
<path d="M63.5318 46.6402V57.0002H61.9358V46.6402H63.5318Z" fill="#767171"/>
<path d="M58.2163 48.2642C57.927 48.2642 57.6843 48.1662 57.4883 47.9702C57.2923 47.7742 57.1943 47.5316 57.1943 47.2422C57.1943 46.9529 57.2923 46.7102 57.4883 46.5142C57.6843 46.3182 57.927 46.2202 58.2163 46.2202C58.4963 46.2202 58.7343 46.3182 58.9303 46.5142C59.1263 46.7102 59.2243 46.9529 59.2243 47.2422C59.2243 47.5316 59.1263 47.7742 58.9303 47.9702C58.7343 48.1662 58.4963 48.2642 58.2163 48.2642ZM59.0003 49.2862V57.0002H57.4043V49.2862H59.0003Z" fill="#767171"/>
<path d="M52.954 52.0022C53.4767 52.0955 53.92 52.3709 54.284 52.8282C54.648 53.2855 54.83 53.8035 54.83 54.3822C54.83 54.8769 54.6993 55.3249 54.438 55.7262C54.186 56.1182 53.8173 56.4309 53.332 56.6642C52.8467 56.8882 52.282 57.0002 51.638 57.0002H47.746V47.2702H51.456C52.1187 47.2702 52.688 47.3822 53.164 47.6062C53.64 47.8302 53.9993 48.1335 54.242 48.5162C54.4847 48.8895 54.606 49.3095 54.606 49.7762C54.606 50.3362 54.4567 50.8029 54.158 51.1762C53.8593 51.5495 53.458 51.8249 52.954 52.0022ZM49.342 51.3582H51.316C51.8387 51.3582 52.2447 51.2415 52.534 51.0082C52.8327 50.7655 52.982 50.4202 52.982 49.9722C52.982 49.5335 52.8327 49.1929 52.534 48.9502C52.2447 48.6982 51.8387 48.5722 51.316 48.5722H49.342V51.3582ZM51.498 55.6982C52.0393 55.6982 52.464 55.5675 52.772 55.3062C53.08 55.0449 53.234 54.6809 53.234 54.2142C53.234 53.7382 53.0707 53.3602 52.744 53.0802C52.4173 52.8002 51.9833 52.6602 51.442 52.6602H49.342V55.6982H51.498Z" fill="#767171"/>
<path d="M40.3282 47.2702V57.0002H38.7322V52.7442H34.1542V57.0002H32.5582V47.2702H34.1542V51.4422H38.7322V47.2702H40.3282Z" fill="#767171"/>
<path d="M30.1018 47.2702V48.5722H27.5118V57.0002H25.9158V48.5722H23.3118V47.2702H30.1018Z" fill="#767171"/>
<path d="M16.228 47.2702C17.264 47.2702 18.1694 47.4709 18.944 47.8722C19.728 48.2642 20.33 48.8335 20.75 49.5802C21.1794 50.3175 21.394 51.1809 21.394 52.1702C21.394 53.1595 21.1794 54.0182 20.75 54.7462C20.33 55.4742 19.728 56.0342 18.944 56.4262C18.1694 56.8089 17.264 57.0002 16.228 57.0002H13.05V47.2702H16.228ZM16.228 55.6982C17.3667 55.6982 18.2394 55.3902 18.846 54.7742C19.4527 54.1582 19.756 53.2902 19.756 52.1702C19.756 51.0409 19.4527 50.1589 18.846 49.5242C18.2394 48.8895 17.3667 48.5722 16.228 48.5722H14.646V55.6982H16.228Z" fill="#767171"/>
<path d="M192.767 29.4062C193 29.0142 193.308 28.7109 193.691 28.4962C194.083 28.2722 194.545 28.1602 195.077 28.1602V29.8122H194.671C194.045 29.8122 193.569 29.9709 193.243 30.2882C192.925 30.6055 192.767 31.1562 192.767 31.9402V36.0002H191.171V28.2862H192.767V29.4062Z" fill="#767171"/>
<path d="M188.225 28.2862V36.0002H186.629V35.0902C186.377 35.4075 186.045 35.6595 185.635 35.8462C185.233 36.0235 184.804 36.1122 184.347 36.1122C183.74 36.1122 183.194 35.9862 182.709 35.7342C182.233 35.4822 181.855 35.1089 181.575 34.6142C181.304 34.1195 181.169 33.5222 181.169 32.8222V28.2862H182.751V32.5842C182.751 33.2749 182.923 33.8069 183.269 34.1802C183.614 34.5442 184.085 34.7262 184.683 34.7262C185.28 34.7262 185.751 34.5442 186.097 34.1802C186.451 33.8069 186.629 33.2749 186.629 32.5842V28.2862H188.225Z" fill="#767171"/>
<path d="M174.817 36.1262C174.089 36.1262 173.431 35.9629 172.843 35.6362C172.255 35.3002 171.793 34.8335 171.457 34.2362C171.121 33.6295 170.953 32.9295 170.953 32.1362C170.953 31.3522 171.126 30.6569 171.471 30.0502C171.816 29.4435 172.288 28.9769 172.885 28.6502C173.482 28.3235 174.15 28.1602 174.887 28.1602C175.624 28.1602 176.292 28.3235 176.889 28.6502C177.486 28.9769 177.958 29.4435 178.303 30.0502C178.648 30.6569 178.821 31.3522 178.821 32.1362C178.821 32.9202 178.644 33.6155 178.289 34.2222C177.934 34.8289 177.449 35.3002 176.833 35.6362C176.226 35.9629 175.554 36.1262 174.817 36.1262ZM174.817 34.7402C175.228 34.7402 175.61 34.6422 175.965 34.4462C176.329 34.2502 176.623 33.9562 176.847 33.5642C177.071 33.1722 177.183 32.6962 177.183 32.1362C177.183 31.5762 177.076 31.1049 176.861 30.7222C176.646 30.3302 176.362 30.0362 176.007 29.8402C175.652 29.6442 175.27 29.5462 174.859 29.5462C174.448 29.5462 174.066 29.6442 173.711 29.8402C173.366 30.0362 173.09 30.3302 172.885 30.7222C172.68 31.1049 172.577 31.5762 172.577 32.1362C172.577 32.9669 172.787 33.6109 173.207 34.0682C173.636 34.5162 174.173 34.7402 174.817 34.7402Z" fill="#767171"/>
<path d="M169.427 28.2862L164.695 39.6262H163.043L164.611 35.8742L161.573 28.2862H163.351L165.521 34.1662L167.775 28.2862H169.427Z" fill="#767171"/>
<path d="M150.786 28.1602C151.383 28.1602 151.91 28.2815 152.368 28.5242C152.834 28.7575 153.198 29.0515 153.46 29.4062V28.2862H155.07V36.1262C155.07 36.8355 154.92 37.4655 154.622 38.0162C154.323 38.5762 153.889 39.0149 153.32 39.3322C152.76 39.6495 152.088 39.8082 151.304 39.8082C150.258 39.8082 149.39 39.5609 148.7 39.0662C148.009 38.5809 147.617 37.9182 147.524 37.0782H149.106C149.227 37.4795 149.484 37.8015 149.876 38.0442C150.277 38.2962 150.753 38.4222 151.304 38.4222C151.948 38.4222 152.466 38.2262 152.858 37.8342C153.259 37.4422 153.46 36.8729 153.46 36.1262V34.8382C153.189 35.2022 152.82 35.5102 152.354 35.7622C151.896 36.0049 151.374 36.1262 150.786 36.1262C150.114 36.1262 149.498 35.9582 148.938 35.6222C148.387 35.2769 147.948 34.8009 147.622 34.1942C147.304 33.5782 147.146 32.8829 147.146 32.1082C147.146 31.3335 147.304 30.6475 147.622 30.0502C147.948 29.4529 148.387 28.9909 148.938 28.6642C149.498 28.3282 150.114 28.1602 150.786 28.1602ZM153.46 32.1362C153.46 31.6042 153.348 31.1422 153.124 30.7502C152.909 30.3582 152.624 30.0595 152.27 29.8542C151.915 29.6489 151.532 29.5462 151.122 29.5462C150.711 29.5462 150.328 29.6489 149.974 29.8542C149.619 30.0502 149.33 30.3442 149.106 30.7362C148.891 31.1189 148.784 31.5762 148.784 32.1082C148.784 32.6402 148.891 33.1069 149.106 33.5082C149.33 33.9095 149.619 34.2175 149.974 34.4322C150.338 34.6375 150.72 34.7402 151.122 34.7402C151.532 34.7402 151.915 34.6375 152.27 34.4322C152.624 34.2269 152.909 33.9282 153.124 33.5362C153.348 33.1349 153.46 32.6682 153.46 32.1362Z" fill="#767171"/>
<path d="M141.638 28.1602C142.244 28.1602 142.786 28.2862 143.262 28.5382C143.747 28.7902 144.125 29.1635 144.396 29.6582C144.666 30.1529 144.802 30.7502 144.802 31.4502V36.0002H143.22V31.6882C143.22 30.9975 143.047 30.4702 142.702 30.1062C142.356 29.7329 141.885 29.5462 141.288 29.5462C140.69 29.5462 140.214 29.7329 139.86 30.1062C139.514 30.4702 139.342 30.9975 139.342 31.6882V36.0002H137.746V28.2862H139.342V29.1682C139.603 28.8509 139.934 28.6035 140.336 28.4262C140.746 28.2489 141.18 28.1602 141.638 28.1602Z" fill="#767171"/>
<path d="M134.026 27.2642C133.737 27.2642 133.494 27.1662 133.298 26.9702C133.102 26.7742 133.004 26.5315 133.004 26.2422C133.004 25.9529 133.102 25.7102 133.298 25.5142C133.494 25.3182 133.737 25.2202 134.026 25.2202C134.306 25.2202 134.544 25.3182 134.74 25.5142C134.936 25.7102 135.034 25.9529 135.034 26.2422C135.034 26.5315 134.936 26.7742 134.74 26.9702C134.544 27.1662 134.306 27.2642 134.026 27.2642ZM134.81 28.2862V36.0002H133.214V28.2862H134.81Z" fill="#767171"/>
<path d="M131.17 28.2862L126.438 39.6262H124.786L126.354 35.8742L123.316 28.2862H125.094L127.264 34.1662L129.518 28.2862H131.17Z" fill="#767171"/>
<path d="M113.366 32.1082C113.366 31.3335 113.524 30.6475 113.842 30.0502C114.168 29.4529 114.607 28.9909 115.158 28.6642C115.718 28.3282 116.334 28.1602 117.006 28.1602C117.612 28.1602 118.14 28.2815 118.588 28.5242C119.045 28.7575 119.409 29.0515 119.68 29.4062V28.2862H121.29V36.0002H119.68V34.8522C119.409 35.2162 119.04 35.5195 118.574 35.7622C118.107 36.0049 117.575 36.1262 116.978 36.1262C116.315 36.1262 115.708 35.9582 115.158 35.6222C114.607 35.2769 114.168 34.8009 113.842 34.1942C113.524 33.5782 113.366 32.8829 113.366 32.1082ZM119.68 32.1362C119.68 31.6042 119.568 31.1422 119.344 30.7502C119.129 30.3582 118.844 30.0595 118.49 29.8542C118.135 29.6489 117.752 29.5462 117.342 29.5462C116.931 29.5462 116.548 29.6489 116.194 29.8542C115.839 30.0502 115.55 30.3442 115.326 30.7362C115.111 31.1189 115.004 31.5762 115.004 32.1082C115.004 32.6402 115.111 33.1069 115.326 33.5082C115.55 33.9095 115.839 34.2175 116.194 34.4322C116.558 34.6375 116.94 34.7402 117.342 34.7402C117.752 34.7402 118.135 34.6375 118.49 34.4322C118.844 34.2269 119.129 33.9282 119.344 33.5362C119.568 33.1349 119.68 32.6682 119.68 32.1362Z" fill="#767171"/>
<path d="M105.165 29.4202C105.436 29.0655 105.805 28.7669 106.271 28.5242C106.738 28.2815 107.265 28.1602 107.853 28.1602C108.525 28.1602 109.137 28.3282 109.687 28.6642C110.247 28.9909 110.686 29.4529 111.003 30.0502C111.321 30.6475 111.479 31.3335 111.479 32.1082C111.479 32.8829 111.321 33.5782 111.003 34.1942C110.686 34.8009 110.247 35.2769 109.687 35.6222C109.137 35.9582 108.525 36.1262 107.853 36.1262C107.265 36.1262 106.743 36.0095 106.285 35.7762C105.828 35.5335 105.455 35.2349 105.165 34.8802V39.6682H103.569V28.2862H105.165V29.4202ZM109.855 32.1082C109.855 31.5762 109.743 31.1189 109.519 30.7362C109.305 30.3442 109.015 30.0502 108.651 29.8542C108.297 29.6489 107.914 29.5462 107.503 29.5462C107.102 29.5462 106.719 29.6489 106.355 29.8542C106.001 30.0595 105.711 30.3582 105.487 30.7502C105.273 31.1422 105.165 31.6042 105.165 32.1362C105.165 32.6682 105.273 33.1349 105.487 33.5362C105.711 33.9282 106.001 34.2269 106.355 34.4322C106.719 34.6375 107.102 34.7402 107.503 34.7402C107.914 34.7402 108.297 34.6375 108.651 34.4322C109.015 34.2175 109.305 33.9095 109.519 33.5082C109.743 33.1069 109.855 32.6402 109.855 32.1082Z" fill="#767171"/>
<path d="M93.5741 36.1262C92.9674 36.1262 92.4214 36.0189 91.9361 35.8042C91.4601 35.5802 91.0821 35.2815 90.8021 34.9082C90.5221 34.5255 90.3728 34.1009 90.3541 33.6342H92.0061C92.0341 33.9609 92.1881 34.2362 92.4681 34.4602C92.7574 34.6749 93.1168 34.7822 93.5461 34.7822C93.9941 34.7822 94.3394 34.6982 94.5821 34.5302C94.8341 34.3529 94.9601 34.1289 94.9601 33.8582C94.9601 33.5689 94.8201 33.3542 94.5401 33.2142C94.2694 33.0742 93.8354 32.9202 93.2381 32.7522C92.6594 32.5935 92.1881 32.4395 91.8241 32.2902C91.4601 32.1409 91.1428 31.9122 90.8721 31.6042C90.6108 31.2962 90.4801 30.8902 90.4801 30.3862C90.4801 29.9755 90.6014 29.6022 90.8441 29.2662C91.0868 28.9209 91.4321 28.6502 91.8801 28.4542C92.3374 28.2582 92.8601 28.1602 93.4481 28.1602C94.3254 28.1602 95.0301 28.3842 95.5621 28.8322C96.1034 29.2709 96.3928 29.8729 96.4301 30.6382H94.8341C94.8061 30.2929 94.6661 30.0175 94.4141 29.8122C94.1621 29.6069 93.8214 29.5042 93.3921 29.5042C92.9721 29.5042 92.6501 29.5835 92.4261 29.7422C92.2021 29.9009 92.0901 30.1109 92.0901 30.3722C92.0901 30.5775 92.1648 30.7502 92.3141 30.8902C92.4634 31.0302 92.6454 31.1422 92.8601 31.2262C93.0748 31.3009 93.3921 31.3989 93.8121 31.5202C94.3721 31.6695 94.8294 31.8235 95.1841 31.9822C95.5481 32.1315 95.8608 32.3555 96.1221 32.6542C96.3834 32.9529 96.5188 33.3495 96.5281 33.8442C96.5281 34.2829 96.4068 34.6749 96.1641 35.0202C95.9214 35.3655 95.5761 35.6362 95.1281 35.8322C94.6894 36.0282 94.1714 36.1262 93.5741 36.1262Z" fill="#767171"/>
<path d="M85.2556 36.1262C84.6489 36.1262 84.1029 36.0189 83.6176 35.8042C83.1416 35.5802 82.7636 35.2815 82.4836 34.9082C82.2036 34.5255 82.0543 34.1009 82.0356 33.6342H83.6876C83.7156 33.9609 83.8696 34.2362 84.1496 34.4602C84.4389 34.6749 84.7983 34.7822 85.2276 34.7822C85.6756 34.7822 86.0209 34.6982 86.2636 34.5302C86.5156 34.3529 86.6416 34.1289 86.6416 33.8582C86.6416 33.5689 86.5016 33.3542 86.2216 33.2142C85.9509 33.0742 85.5169 32.9202 84.9196 32.7522C84.3409 32.5935 83.8696 32.4395 83.5056 32.2902C83.1416 32.1409 82.8243 31.9122 82.5536 31.6042C82.2923 31.2962 82.1616 30.8902 82.1616 30.3862C82.1616 29.9755 82.2829 29.6022 82.5256 29.2662C82.7683 28.9209 83.1136 28.6502 83.5616 28.4542C84.0189 28.2582 84.5416 28.1602 85.1296 28.1602C86.0069 28.1602 86.7116 28.3842 87.2436 28.8322C87.7849 29.2709 88.0743 29.8729 88.1116 30.6382H86.5156C86.4876 30.2929 86.3476 30.0175 86.0956 29.8122C85.8436 29.6069 85.5029 29.5042 85.0736 29.5042C84.6536 29.5042 84.3316 29.5835 84.1076 29.7422C83.8836 29.9009 83.7716 30.1109 83.7716 30.3722C83.7716 30.5775 83.8463 30.7502 83.9956 30.8902C84.1449 31.0302 84.3269 31.1422 84.5416 31.2262C84.7563 31.3009 85.0736 31.3989 85.4936 31.5202C86.0536 31.6695 86.5109 31.8235 86.8656 31.9822C87.2296 32.1315 87.5423 32.3555 87.8036 32.6542C88.0649 32.9529 88.2003 33.3495 88.2096 33.8442C88.2096 34.2829 88.0883 34.6749 87.8456 35.0202C87.6029 35.3655 87.2576 35.6362 86.8096 35.8322C86.3709 36.0282 85.8529 36.1262 85.2556 36.1262Z" fill="#767171"/>
<path d="M78.7362 27.2642C78.4469 27.2642 78.2042 27.1662 78.0082 26.9702C77.8122 26.7742 77.7142 26.5315 77.7142 26.2422C77.7142 25.9529 77.8122 25.7102 78.0082 25.5142C78.2042 25.3182 78.4469 25.2202 78.7362 25.2202C79.0162 25.2202 79.2542 25.3182 79.4502 25.5142C79.6462 25.7102 79.7442 25.9529 79.7442 26.2422C79.7442 26.5315 79.6462 26.7742 79.4502 26.9702C79.2542 27.1662 79.0162 27.2642 78.7362 27.2642ZM79.5202 28.2862V36.0002H77.9242V28.2862H79.5202Z" fill="#767171"/>
<path d="M71.8753 28.1602C72.482 28.1602 73.0233 28.2862 73.4993 28.5382C73.9846 28.7902 74.3626 29.1635 74.6333 29.6582C74.9133 30.1529 75.0533 30.7502 75.0533 31.4502V36.0002H73.4713V31.6882C73.4713 30.9975 73.2986 30.4702 72.9533 30.1062C72.608 29.7329 72.1367 29.5462 71.5393 29.5462C70.942 29.5462 70.466 29.7329 70.1113 30.1062C69.766 30.4702 69.5933 30.9975 69.5933 31.6882V36.0002H68.0113V31.6882C68.0113 30.9975 67.8386 30.4702 67.4933 30.1062C67.148 29.7329 66.6766 29.5462 66.0793 29.5462C65.482 29.5462 65.006 29.7329 64.6513 30.1062C64.306 30.4702 64.1333 30.9975 64.1333 31.6882V36.0002H62.5373V28.2862H64.1333V29.1682C64.3946 28.8509 64.726 28.6035 65.1273 28.4262C65.5286 28.2489 65.958 28.1602 66.4153 28.1602C67.0313 28.1602 67.582 28.2909 68.0673 28.5522C68.5527 28.8135 68.926 29.1915 69.1873 29.6862C69.4207 29.2195 69.7846 28.8509 70.2793 28.5802C70.774 28.3002 71.306 28.1602 71.8753 28.1602Z" fill="#767171"/>
<path d="M53.4436 29.4062C53.6769 29.0142 53.9849 28.7109 54.3675 28.4962C54.7595 28.2722 55.2215 28.1602 55.7536 28.1602V29.8122H55.3475C54.7222 29.8122 54.2462 29.9709 53.9196 30.2882C53.6022 30.6055 53.4436 31.1562 53.4436 31.9402V36.0002H51.8475V28.2862H53.4436V29.4062Z" fill="#767171"/>
<path d="M49.4369 31.9542C49.4369 32.2435 49.4183 32.5049 49.3809 32.7382H43.4869C43.5336 33.3542 43.7623 33.8489 44.1729 34.2222C44.5836 34.5955 45.0876 34.7822 45.6849 34.7822C46.5436 34.7822 47.1503 34.4229 47.5049 33.7042H49.2269C48.9936 34.4135 48.5689 34.9969 47.9529 35.4542C47.3463 35.9022 46.5903 36.1262 45.6849 36.1262C44.9476 36.1262 44.2849 35.9629 43.6969 35.6362C43.1183 35.3002 42.6609 34.8335 42.3249 34.2362C41.9983 33.6295 41.8349 32.9295 41.8349 32.1362C41.8349 31.3429 41.9936 30.6475 42.3109 30.0502C42.6376 29.4435 43.0903 28.9769 43.6689 28.6502C44.2569 28.3235 44.9289 28.1602 45.6849 28.1602C46.4129 28.1602 47.0616 28.3189 47.6309 28.6362C48.2003 28.9535 48.6436 29.4015 48.9609 29.9802C49.2783 30.5495 49.4369 31.2075 49.4369 31.9542ZM47.7709 31.4502C47.7616 30.8622 47.5516 30.3909 47.1409 30.0362C46.7303 29.6815 46.2216 29.5042 45.6149 29.5042C45.0643 29.5042 44.5929 29.6815 44.2009 30.0362C43.8089 30.3815 43.5756 30.8529 43.5009 31.4502H47.7709Z" fill="#767171"/>
<path d="M36.4425 34.5722L38.6265 28.2862H40.3205L37.3805 36.0002H35.4765L32.5505 28.2862H34.2585L36.4425 34.5722Z" fill="#767171"/>
<path d="M31.0499 31.9542C31.0499 32.2435 31.0312 32.5049 30.9939 32.7382H25.0999C25.1466 33.3542 25.3752 33.8489 25.7859 34.2222C26.1966 34.5955 26.7006 34.7822 27.2979 34.7822C28.1566 34.7822 28.7632 34.4229 29.1179 33.7042H30.8399C30.6066 34.4135 30.1819 34.9969 29.5659 35.4542C28.9592 35.9022 28.2032 36.1262 27.2979 36.1262C26.5606 36.1262 25.8979 35.9629 25.3099 35.6362C24.7312 35.3002 24.2739 34.8335 23.9379 34.2362C23.6112 33.6295 23.4479 32.9295 23.4479 32.1362C23.4479 31.3429 23.6066 30.6475 23.9239 30.0502C24.2506 29.4435 24.7032 28.9769 25.2819 28.6502C25.8699 28.3235 26.5419 28.1602 27.2979 28.1602C28.0259 28.1602 28.6746 28.3189 29.2439 28.6362C29.8132 28.9535 30.2566 29.4015 30.5739 29.9802C30.8912 30.5495 31.0499 31.2075 31.0499 31.9542ZM29.3839 31.4502C29.3746 30.8622 29.1646 30.3909 28.7539 30.0362C28.3432 29.6815 27.8346 29.5042 27.2279 29.5042C26.6772 29.5042 26.2059 29.6815 25.8139 30.0362C25.4219 30.3815 25.1886 30.8529 25.1139 31.4502H29.3839Z" fill="#767171"/>
<path d="M21.044 36.0002H19.448L14.646 28.7342V36.0002H13.05V26.2562H14.646L19.448 33.5082V26.2562H21.044V36.0002Z" fill="#767171"/>
<path d="M208.123 126.286V134H206.527V133.09C206.275 133.407 205.944 133.659 205.533 133.846C205.132 134.023 204.703 134.112 204.245 134.112C203.639 134.112 203.093 133.986 202.607 133.734C202.131 133.482 201.753 133.109 201.473 132.614C201.203 132.119 201.067 131.522 201.067 130.822V126.286H202.649V130.584C202.649 131.275 202.822 131.807 203.167 132.18C203.513 132.544 203.984 132.726 204.581 132.726C205.179 132.726 205.65 132.544 205.995 132.18C206.35 131.807 206.527 131.275 206.527 130.584V126.286H208.123Z" fill="#767171"/>
<path d="M194.716 134.126C193.988 134.126 193.33 133.963 192.742 133.636C192.154 133.3 191.692 132.833 191.356 132.236C191.02 131.629 190.852 130.929 190.852 130.136C190.852 129.352 191.024 128.657 191.37 128.05C191.715 127.443 192.186 126.977 192.784 126.65C193.381 126.323 194.048 126.16 194.786 126.16C195.523 126.16 196.19 126.323 196.788 126.65C197.385 126.977 197.856 127.443 198.202 128.05C198.547 128.657 198.72 129.352 198.72 130.136C198.72 130.92 198.542 131.615 198.188 132.222C197.833 132.829 197.348 133.3 196.732 133.636C196.125 133.963 195.453 134.126 194.716 134.126ZM194.716 132.74C195.126 132.74 195.509 132.642 195.864 132.446C196.228 132.25 196.522 131.956 196.746 131.564C196.97 131.172 197.082 130.696 197.082 130.136C197.082 129.576 196.974 129.105 196.76 128.722C196.545 128.33 196.26 128.036 195.906 127.84C195.551 127.644 195.168 127.546 194.758 127.546C194.347 127.546 193.964 127.644 193.61 127.84C193.264 128.036 192.989 128.33 192.784 128.722C192.578 129.105 192.476 129.576 192.476 130.136C192.476 130.967 192.686 131.611 193.106 132.068C193.535 132.516 194.072 132.74 194.716 132.74Z" fill="#767171"/>
<path d="M189.325 126.286L184.593 137.626H182.941L184.509 133.874L181.471 126.286H183.249L185.419 132.166L187.673 126.286H189.325Z" fill="#767171"/>
<path d="M167.044 130.108C167.044 129.333 167.203 128.647 167.52 128.05C167.847 127.453 168.286 126.991 168.836 126.664C169.396 126.328 170.017 126.16 170.698 126.16C171.202 126.16 171.697 126.272 172.182 126.496C172.677 126.711 173.069 127 173.358 127.364V123.64H174.968V134H173.358V132.838C173.097 133.211 172.733 133.519 172.266 133.762C171.809 134.005 171.282 134.126 170.684 134.126C170.012 134.126 169.396 133.958 168.836 133.622C168.286 133.277 167.847 132.801 167.52 132.194C167.203 131.578 167.044 130.883 167.044 130.108ZM173.358 130.136C173.358 129.604 173.246 129.142 173.022 128.75C172.808 128.358 172.523 128.059 172.168 127.854C171.814 127.649 171.431 127.546 171.02 127.546C170.61 127.546 170.227 127.649 169.872 127.854C169.518 128.05 169.228 128.344 169.004 128.736C168.79 129.119 168.682 129.576 168.682 130.108C168.682 130.64 168.79 131.107 169.004 131.508C169.228 131.909 169.518 132.217 169.872 132.432C170.236 132.637 170.619 132.74 171.02 132.74C171.431 132.74 171.814 132.637 172.168 132.432C172.523 132.227 172.808 131.928 173.022 131.536C173.246 131.135 173.358 130.668 173.358 130.136Z" fill="#767171"/>
<path d="M161.536 126.16C162.143 126.16 162.684 126.286 163.16 126.538C163.646 126.79 164.024 127.163 164.294 127.658C164.565 128.153 164.7 128.75 164.7 129.45V134H163.118V129.688C163.118 128.997 162.946 128.47 162.6 128.106C162.255 127.733 161.784 127.546 161.186 127.546C160.589 127.546 160.113 127.733 159.758 128.106C159.413 128.47 159.24 128.997 159.24 129.688V134H157.644V126.286H159.24V127.168C159.502 126.851 159.833 126.603 160.234 126.426C160.645 126.249 161.079 126.16 161.536 126.16Z" fill="#767171"/>
<path d="M153.925 125.264C153.636 125.264 153.393 125.166 153.197 124.97C153.001 124.774 152.903 124.532 152.903 124.242C152.903 123.953 153.001 123.71 153.197 123.514C153.393 123.318 153.636 123.22 153.925 123.22C154.205 123.22 154.443 123.318 154.639 123.514C154.835 123.71 154.933 123.953 154.933 124.242C154.933 124.532 154.835 124.774 154.639 124.97C154.443 125.166 154.205 125.264 153.925 125.264ZM154.709 126.286V134H153.113V126.286H154.709Z" fill="#767171"/>
<path d="M147.064 126.16C147.671 126.16 148.212 126.286 148.688 126.538C149.173 126.79 149.551 127.163 149.822 127.658C150.102 128.153 150.242 128.75 150.242 129.45V134H148.66V129.688C148.66 128.997 148.487 128.47 148.142 128.106C147.797 127.733 147.325 127.546 146.728 127.546C146.131 127.546 145.655 127.733 145.3 128.106C144.955 128.47 144.782 128.997 144.782 129.688V134H143.2V129.688C143.2 128.997 143.027 128.47 142.682 128.106C142.337 127.733 141.865 127.546 141.268 127.546C140.671 127.546 140.195 127.733 139.84 128.106C139.495 128.47 139.322 128.997 139.322 129.688V134H137.726V126.286H139.322V127.168C139.583 126.851 139.915 126.603 140.316 126.426C140.717 126.249 141.147 126.16 141.604 126.16C142.22 126.16 142.771 126.291 143.256 126.552C143.741 126.813 144.115 127.191 144.376 127.686C144.609 127.219 144.973 126.851 145.468 126.58C145.963 126.3 146.495 126.16 147.064 126.16Z" fill="#767171"/>
<path d="M135.315 129.954C135.315 130.243 135.297 130.505 135.259 130.738H129.365C129.412 131.354 129.641 131.849 130.051 132.222C130.462 132.595 130.966 132.782 131.563 132.782C132.422 132.782 133.029 132.423 133.383 131.704H135.105C134.872 132.413 134.447 132.997 133.831 133.454C133.225 133.902 132.469 134.126 131.563 134.126C130.826 134.126 130.163 133.963 129.575 133.636C128.997 133.3 128.539 132.833 128.203 132.236C127.877 131.629 127.713 130.929 127.713 130.136C127.713 129.343 127.872 128.647 128.189 128.05C128.516 127.443 128.969 126.977 129.547 126.65C130.135 126.323 130.807 126.16 131.563 126.16C132.291 126.16 132.94 126.319 133.509 126.636C134.079 126.953 134.522 127.401 134.839 127.98C135.157 128.549 135.315 129.207 135.315 129.954ZM133.649 129.45C133.64 128.862 133.43 128.391 133.019 128.036C132.609 127.681 132.1 127.504 131.493 127.504C130.943 127.504 130.471 127.681 130.079 128.036C129.687 128.381 129.454 128.853 129.379 129.45H133.649Z" fill="#767171"/>
<path d="M123.628 127.406C123.862 127.014 124.17 126.711 124.552 126.496C124.944 126.272 125.406 126.16 125.938 126.16V127.812H125.532C124.907 127.812 124.431 127.971 124.104 128.288C123.787 128.605 123.628 129.156 123.628 129.94V134H122.032V126.286H123.628V127.406Z" fill="#767171"/>
<path d="M106.695 130.108C106.695 129.333 106.854 128.647 107.171 128.05C107.498 127.453 107.937 126.991 108.487 126.664C109.047 126.328 109.668 126.16 110.349 126.16C110.853 126.16 111.348 126.272 111.833 126.496C112.328 126.711 112.72 127 113.009 127.364V123.64H114.619V134H113.009V132.838C112.748 133.211 112.384 133.519 111.917 133.762C111.46 134.005 110.933 134.126 110.335 134.126C109.663 134.126 109.047 133.958 108.487 133.622C107.937 133.277 107.498 132.801 107.171 132.194C106.854 131.578 106.695 130.883 106.695 130.108ZM113.009 130.136C113.009 129.604 112.897 129.142 112.673 128.75C112.459 128.358 112.174 128.059 111.819 127.854C111.465 127.649 111.082 127.546 110.671 127.546C110.261 127.546 109.878 127.649 109.523 127.854C109.169 128.05 108.879 128.344 108.655 128.736C108.441 129.119 108.333 129.576 108.333 130.108C108.333 130.64 108.441 131.107 108.655 131.508C108.879 131.909 109.169 132.217 109.523 132.432C109.887 132.637 110.27 132.74 110.671 132.74C111.082 132.74 111.465 132.637 111.819 132.432C112.174 132.227 112.459 131.928 112.673 131.536C112.897 131.135 113.009 130.668 113.009 130.136Z" fill="#767171"/>
<path d="M101.188 126.16C101.794 126.16 102.336 126.286 102.812 126.538C103.297 126.79 103.675 127.163 103.946 127.658C104.216 128.153 104.352 128.75 104.352 129.45V134H102.77V129.688C102.77 128.997 102.597 128.47 102.252 128.106C101.906 127.733 101.435 127.546 100.838 127.546C100.24 127.546 99.7643 127.733 99.4097 128.106C99.0643 128.47 98.8917 128.997 98.8917 129.688V134H97.2957V126.286H98.8917V127.168C99.153 126.851 99.4843 126.603 99.8857 126.426C100.296 126.249 100.73 126.16 101.188 126.16Z" fill="#767171"/>
<path d="M86.4353 130.108C86.4353 129.333 86.594 128.647 86.9113 128.05C87.238 127.453 87.6766 126.991 88.2273 126.664C88.7873 126.328 89.4033 126.16 90.0753 126.16C90.682 126.16 91.2093 126.281 91.6573 126.524C92.1146 126.757 92.4786 127.051 92.7493 127.406V126.286H94.3593V134H92.7493V132.852C92.4786 133.216 92.11 133.519 91.6433 133.762C91.1766 134.005 90.6446 134.126 90.0473 134.126C89.3846 134.126 88.778 133.958 88.2273 133.622C87.6766 133.277 87.238 132.801 86.9113 132.194C86.594 131.578 86.4353 130.883 86.4353 130.108ZM92.7493 130.136C92.7493 129.604 92.6373 129.142 92.4133 128.75C92.1986 128.358 91.914 128.059 91.5593 127.854C91.2046 127.649 90.822 127.546 90.4113 127.546C90.0006 127.546 89.618 127.649 89.2633 127.854C88.9086 128.05 88.6193 128.344 88.3953 128.736C88.1806 129.119 88.0733 129.576 88.0733 130.108C88.0733 130.64 88.1806 131.107 88.3953 131.508C88.6193 131.909 88.9086 132.217 89.2633 132.432C89.6273 132.637 90.01 132.74 90.4113 132.74C90.822 132.74 91.2046 132.637 91.5593 132.432C91.914 132.227 92.1986 131.928 92.4133 131.536C92.6373 131.135 92.7493 130.668 92.7493 130.136Z" fill="#767171"/>
<path d="M80.08 129.954C80.08 130.243 80.0614 130.505 80.024 130.738H74.13C74.1767 131.354 74.4054 131.849 74.816 132.222C75.2267 132.595 75.7307 132.782 76.328 132.782C77.1867 132.782 77.7934 132.423 78.148 131.704H79.87C79.6367 132.413 79.212 132.997 78.596 133.454C77.9894 133.902 77.2334 134.126 76.328 134.126C75.5907 134.126 74.928 133.963 74.34 133.636C73.7614 133.3 73.304 132.833 72.968 132.236C72.6414 131.629 72.478 130.929 72.478 130.136C72.478 129.343 72.6367 128.647 72.954 128.05C73.2807 127.443 73.7334 126.977 74.312 126.65C74.9 126.323 75.572 126.16 76.328 126.16C77.056 126.16 77.7047 126.319 78.274 126.636C78.8434 126.953 79.2867 127.401 79.604 127.98C79.9214 128.549 80.08 129.207 80.08 129.954ZM78.414 129.45C78.4047 128.862 78.1947 128.391 77.784 128.036C77.3734 127.681 76.8647 127.504 76.258 127.504C75.7074 127.504 75.236 127.681 74.844 128.036C74.452 128.381 74.2187 128.853 74.144 129.45H78.414Z" fill="#767171"/>
<path d="M65.7897 126.16C66.387 126.16 66.9143 126.281 67.3717 126.524C67.8383 126.757 68.2023 127.051 68.4637 127.406V126.286H70.0737V134.126C70.0737 134.835 69.9243 135.465 69.6257 136.016C69.327 136.576 68.893 137.015 68.3237 137.332C67.7637 137.649 67.0917 137.808 66.3077 137.808C65.2623 137.808 64.3943 137.561 63.7037 137.066C63.013 136.581 62.621 135.918 62.5277 135.078H64.1097C64.231 135.479 64.4877 135.801 64.8797 136.044C65.281 136.296 65.757 136.422 66.3077 136.422C66.9517 136.422 67.4697 136.226 67.8617 135.834C68.263 135.442 68.4637 134.873 68.4637 134.126V132.838C68.193 133.202 67.8243 133.51 67.3577 133.762C66.9003 134.005 66.3777 134.126 65.7897 134.126C65.1177 134.126 64.5017 133.958 63.9417 133.622C63.391 133.277 62.9523 132.801 62.6257 132.194C62.3083 131.578 62.1497 130.883 62.1497 130.108C62.1497 129.333 62.3083 128.647 62.6257 128.05C62.9523 127.453 63.391 126.991 63.9417 126.664C64.5017 126.328 65.1177 126.16 65.7897 126.16ZM68.4637 130.136C68.4637 129.604 68.3517 129.142 68.1277 128.75C67.913 128.358 67.6283 128.059 67.2737 127.854C66.919 127.649 66.5363 127.546 66.1257 127.546C65.715 127.546 65.3323 127.649 64.9777 127.854C64.623 128.05 64.3337 128.344 64.1097 128.736C63.895 129.119 63.7877 129.576 63.7877 130.108C63.7877 130.64 63.895 131.107 64.1097 131.508C64.3337 131.909 64.623 132.217 64.9777 132.432C65.3417 132.637 65.7243 132.74 66.1257 132.74C66.5363 132.74 66.919 132.637 67.2737 132.432C67.6283 132.227 67.913 131.928 68.1277 131.536C68.3517 131.135 68.4637 130.668 68.4637 130.136Z" fill="#767171"/>
<path d="M51.8215 130.108C51.8215 129.333 51.9802 128.647 52.2975 128.05C52.6242 127.453 53.0629 126.991 53.6135 126.664C54.1735 126.328 54.7895 126.16 55.4615 126.16C56.0682 126.16 56.5955 126.281 57.0435 126.524C57.5009 126.757 57.8649 127.051 58.1355 127.406V126.286H59.7455V134H58.1355V132.852C57.8649 133.216 57.4962 133.519 57.0295 133.762C56.5629 134.005 56.0309 134.126 55.4335 134.126C54.7709 134.126 54.1642 133.958 53.6135 133.622C53.0629 133.277 52.6242 132.801 52.2975 132.194C51.9802 131.578 51.8215 130.883 51.8215 130.108ZM58.1355 130.136C58.1355 129.604 58.0235 129.142 57.7995 128.75C57.5849 128.358 57.3002 128.059 56.9455 127.854C56.5909 127.649 56.2082 127.546 55.7975 127.546C55.3869 127.546 55.0042 127.649 54.6495 127.854C54.2949 128.05 54.0055 128.344 53.7815 128.736C53.5669 129.119 53.4595 129.576 53.4595 130.108C53.4595 130.64 53.5669 131.107 53.7815 131.508C54.0055 131.909 54.2949 132.217 54.6495 132.432C55.0135 132.637 55.3962 132.74 55.7975 132.74C56.2082 132.74 56.5909 132.637 56.9455 132.432C57.3002 132.227 57.5849 131.928 57.7995 131.536C58.0235 131.135 58.1355 130.668 58.1355 130.136Z" fill="#767171"/>
<path d="M46.835 134.126C46.2283 134.126 45.6823 134.019 45.197 133.804C44.721 133.58 44.343 133.281 44.063 132.908C43.783 132.525 43.6337 132.101 43.615 131.634H45.267C45.295 131.961 45.449 132.236 45.729 132.46C46.0183 132.675 46.3777 132.782 46.807 132.782C47.255 132.782 47.6003 132.698 47.843 132.53C48.095 132.353 48.221 132.129 48.221 131.858C48.221 131.569 48.081 131.354 47.801 131.214C47.5303 131.074 47.0963 130.92 46.499 130.752C45.9203 130.593 45.449 130.439 45.085 130.29C44.721 130.141 44.4037 129.912 44.133 129.604C43.8717 129.296 43.741 128.89 43.741 128.386C43.741 127.975 43.8623 127.602 44.105 127.266C44.3477 126.921 44.693 126.65 45.141 126.454C45.5983 126.258 46.121 126.16 46.709 126.16C47.5863 126.16 48.291 126.384 48.823 126.832C49.3643 127.271 49.6537 127.873 49.691 128.638H48.095C48.067 128.293 47.927 128.017 47.675 127.812C47.423 127.607 47.0823 127.504 46.653 127.504C46.233 127.504 45.911 127.583 45.687 127.742C45.463 127.901 45.351 128.111 45.351 128.372C45.351 128.577 45.4257 128.75 45.575 128.89C45.7243 129.03 45.9063 129.142 46.121 129.226C46.3357 129.301 46.653 129.399 47.073 129.52C47.633 129.669 48.0903 129.823 48.445 129.982C48.809 130.131 49.1217 130.355 49.383 130.654C49.6443 130.953 49.7797 131.349 49.789 131.844C49.789 132.283 49.6677 132.675 49.425 133.02C49.1823 133.365 48.837 133.636 48.389 133.832C47.9503 134.028 47.4323 134.126 46.835 134.126Z" fill="#767171"/>
<path d="M38.5164 134.126C37.9097 134.126 37.3637 134.019 36.8784 133.804C36.4024 133.58 36.0244 133.281 35.7444 132.908C35.4644 132.525 35.3151 132.101 35.2964 131.634H36.9484C36.9764 131.961 37.1304 132.236 37.4104 132.46C37.6997 132.675 38.0591 132.782 38.4884 132.782C38.9364 132.782 39.2817 132.698 39.5244 132.53C39.7764 132.353 39.9024 132.129 39.9024 131.858C39.9024 131.569 39.7624 131.354 39.4824 131.214C39.2117 131.074 38.7777 130.92 38.1804 130.752C37.6017 130.593 37.1304 130.439 36.7664 130.29C36.4024 130.141 36.0851 129.912 35.8144 129.604C35.5531 129.296 35.4224 128.89 35.4224 128.386C35.4224 127.975 35.5437 127.602 35.7864 127.266C36.0291 126.921 36.3744 126.65 36.8224 126.454C37.2797 126.258 37.8024 126.16 38.3904 126.16C39.2677 126.16 39.9724 126.384 40.5044 126.832C41.0457 127.271 41.3351 127.873 41.3724 128.638H39.7764C39.7484 128.293 39.6084 128.017 39.3564 127.812C39.1044 127.607 38.7637 127.504 38.3344 127.504C37.9144 127.504 37.5924 127.583 37.3684 127.742C37.1444 127.901 37.0324 128.111 37.0324 128.372C37.0324 128.577 37.1071 128.75 37.2564 128.89C37.4057 129.03 37.5877 129.142 37.8024 129.226C38.0171 129.301 38.3344 129.399 38.7544 129.52C39.3144 129.669 39.7717 129.823 40.1264 129.982C40.4904 130.131 40.8031 130.355 41.0644 130.654C41.3257 130.953 41.4611 131.349 41.4704 131.844C41.4704 132.283 41.3491 132.675 41.1064 133.02C40.8637 133.365 40.5184 133.636 40.0704 133.832C39.6317 134.028 39.1137 134.126 38.5164 134.126Z" fill="#767171"/>
<path d="M33.3059 129.954C33.3059 130.243 33.2872 130.505 33.2499 130.738H27.3559C27.4025 131.354 27.6312 131.849 28.0419 132.222C28.4525 132.595 28.9565 132.782 29.5539 132.782C30.4125 132.782 31.0192 132.423 31.3739 131.704H33.0959C32.8625 132.413 32.4379 132.997 31.8219 133.454C31.2152 133.902 30.4592 134.126 29.5539 134.126C28.8165 134.126 28.1539 133.963 27.5659 133.636C26.9872 133.3 26.5299 132.833 26.1939 132.236C25.8672 131.629 25.7039 130.929 25.7039 130.136C25.7039 129.343 25.8625 128.647 26.1799 128.05C26.5065 127.443 26.9592 126.977 27.5379 126.65C28.1259 126.323 28.7979 126.16 29.5539 126.16C30.2819 126.16 30.9305 126.319 31.4999 126.636C32.0692 126.953 32.5125 127.401 32.8299 127.98C33.1472 128.549 33.3059 129.207 33.3059 129.954ZM31.6399 129.45C31.6305 128.862 31.4205 128.391 31.0099 128.036C30.5992 127.681 30.0905 127.504 29.4839 127.504C28.9332 127.504 28.4619 127.681 28.0699 128.036C27.6779 128.381 27.4445 128.853 27.3699 129.45H31.6399Z" fill="#767171"/>
<path d="M23.298 124.27V134H21.702V127.336L18.734 134H17.628L14.646 127.336V134H13.05V124.27H14.772L18.188 131.9L21.59 124.27H23.298Z" fill="#767171"/>
<path d="M214.562 106.588V110.858C214.562 111.147 214.628 111.357 214.758 111.488C214.898 111.609 215.132 111.67 215.458 111.67H216.438V113H215.178C214.46 113 213.909 112.832 213.526 112.496C213.144 112.16 212.952 111.614 212.952 110.858V106.588H212.042V105.286H212.952V103.368H214.562V105.286H216.438V106.588H214.562Z" fill="#767171"/>
<path d="M208.178 109.094L210.67 113H208.864L207.198 110.382L205.63 113H203.964L206.456 109.206L203.964 105.286H205.77L207.436 107.904L209.004 105.286H210.67L208.178 109.094Z" fill="#767171"/>
<path d="M202.464 108.954C202.464 109.243 202.445 109.505 202.408 109.738H196.514C196.56 110.354 196.789 110.849 197.2 111.222C197.61 111.595 198.114 111.782 198.712 111.782C199.57 111.782 200.177 111.423 200.532 110.704H202.254C202.02 111.413 201.596 111.997 200.98 112.454C200.373 112.902 199.617 113.126 198.712 113.126C197.974 113.126 197.312 112.963 196.724 112.636C196.145 112.3 195.688 111.833 195.352 111.236C195.025 110.629 194.862 109.929 194.862 109.136C194.862 108.343 195.02 107.647 195.338 107.05C195.664 106.443 196.117 105.977 196.696 105.65C197.284 105.323 197.956 105.16 198.712 105.16C199.44 105.16 200.088 105.319 200.658 105.636C201.227 105.953 201.67 106.401 201.988 106.98C202.305 107.549 202.464 108.207 202.464 108.954ZM200.798 108.45C200.788 107.862 200.578 107.391 200.168 107.036C199.757 106.681 199.248 106.504 198.642 106.504C198.091 106.504 197.62 106.681 197.228 107.036C196.836 107.381 196.602 107.853 196.528 108.45H200.798Z" fill="#767171"/>
<path d="M191.207 106.588V110.858C191.207 111.147 191.272 111.357 191.403 111.488C191.543 111.609 191.776 111.67 192.103 111.67H193.083V113H191.823C191.104 113 190.553 112.832 190.171 112.496C189.788 112.16 189.597 111.614 189.597 110.858V106.588H188.687V105.286H189.597V103.368H191.207V105.286H193.083V106.588H191.207Z" fill="#767171"/>
<path d="M174.008 109.108C174.008 108.333 174.166 107.647 174.484 107.05C174.81 106.453 175.249 105.991 175.8 105.664C176.36 105.328 176.98 105.16 177.662 105.16C178.166 105.16 178.66 105.272 179.146 105.496C179.64 105.711 180.032 106 180.322 106.364V102.64H181.932V113H180.322V111.838C180.06 112.211 179.696 112.519 179.23 112.762C178.772 113.005 178.245 113.126 177.648 113.126C176.976 113.126 176.36 112.958 175.8 112.622C175.249 112.277 174.81 111.801 174.484 111.194C174.166 110.578 174.008 109.883 174.008 109.108ZM180.322 109.136C180.322 108.604 180.21 108.142 179.986 107.75C179.771 107.358 179.486 107.059 179.132 106.854C178.777 106.649 178.394 106.546 177.984 106.546C177.573 106.546 177.19 106.649 176.836 106.854C176.481 107.05 176.192 107.344 175.968 107.736C175.753 108.119 175.646 108.576 175.646 109.108C175.646 109.64 175.753 110.107 175.968 110.508C176.192 110.909 176.481 111.217 176.836 111.432C177.2 111.637 177.582 111.74 177.984 111.74C178.394 111.74 178.777 111.637 179.132 111.432C179.486 111.227 179.771 110.928 179.986 110.536C180.21 110.135 180.322 109.668 180.322 109.136Z" fill="#767171"/>
<path d="M163.679 109.108C163.679 108.333 163.838 107.647 164.155 107.05C164.482 106.453 164.921 105.991 165.471 105.664C166.031 105.328 166.647 105.16 167.319 105.16C167.926 105.16 168.453 105.281 168.901 105.524C169.359 105.757 169.723 106.051 169.993 106.406V105.286H171.603V113H169.993V111.852C169.723 112.216 169.354 112.519 168.887 112.762C168.421 113.005 167.889 113.126 167.291 113.126C166.629 113.126 166.022 112.958 165.471 112.622C164.921 112.277 164.482 111.801 164.155 111.194C163.838 110.578 163.679 109.883 163.679 109.108ZM169.993 109.136C169.993 108.604 169.881 108.142 169.657 107.75C169.443 107.358 169.158 107.059 168.803 106.854C168.449 106.649 168.066 106.546 167.655 106.546C167.245 106.546 166.862 106.649 166.507 106.854C166.153 107.05 165.863 107.344 165.639 107.736C165.425 108.119 165.317 108.576 165.317 109.108C165.317 109.64 165.425 110.107 165.639 110.508C165.863 110.909 166.153 111.217 166.507 111.432C166.871 111.637 167.254 111.74 167.655 111.74C168.066 111.74 168.449 111.637 168.803 111.432C169.158 111.227 169.443 110.928 169.657 110.536C169.881 110.135 169.993 109.668 169.993 109.136Z" fill="#767171"/>
<path d="M161.801 108.954C161.801 109.243 161.782 109.505 161.745 109.738H155.851C155.897 110.354 156.126 110.849 156.537 111.222C156.947 111.595 157.451 111.782 158.049 111.782C158.907 111.782 159.514 111.423 159.869 110.704H161.591C161.357 111.413 160.933 111.997 160.317 112.454C159.71 112.902 158.954 113.126 158.049 113.126C157.311 113.126 156.649 112.963 156.061 112.636C155.482 112.3 155.025 111.833 154.689 111.236C154.362 110.629 154.199 109.929 154.199 109.136C154.199 108.343 154.357 107.647 154.675 107.05C155.001 106.443 155.454 105.977 156.033 105.65C156.621 105.323 157.293 105.16 158.049 105.16C158.777 105.16 159.425 105.319 159.995 105.636C160.564 105.953 161.007 106.401 161.325 106.98C161.642 107.549 161.801 108.207 161.801 108.954ZM160.135 108.45C160.125 107.862 159.915 107.391 159.505 107.036C159.094 106.681 158.585 106.504 157.979 106.504C157.428 106.504 156.957 106.681 156.565 107.036C156.173 107.381 155.939 107.853 155.865 108.45H160.135Z" fill="#767171"/>
<path d="M150.099 113L147.859 109.108H146.641V113H145.045V103.27H148.405C149.152 103.27 149.782 103.401 150.295 103.662C150.818 103.923 151.205 104.273 151.457 104.712C151.718 105.151 151.849 105.641 151.849 106.182C151.849 106.817 151.662 107.395 151.289 107.918C150.925 108.431 150.36 108.781 149.595 108.968L152.003 113H150.099ZM146.641 107.834H148.405C149.002 107.834 149.45 107.685 149.749 107.386C150.057 107.087 150.211 106.686 150.211 106.182C150.211 105.678 150.062 105.286 149.763 105.006C149.464 104.717 149.012 104.572 148.405 104.572H146.641V107.834Z" fill="#767171"/>
<path d="M134.146 113.126C133.418 113.126 132.76 112.963 132.172 112.636C131.584 112.3 131.122 111.833 130.786 111.236C130.45 110.629 130.282 109.929 130.282 109.136C130.282 108.352 130.455 107.657 130.8 107.05C131.146 106.443 131.617 105.977 132.214 105.65C132.812 105.323 133.479 105.16 134.216 105.16C134.954 105.16 135.621 105.323 136.218 105.65C136.816 105.977 137.287 106.443 137.632 107.05C137.978 107.657 138.15 108.352 138.15 109.136C138.15 109.92 137.973 110.615 137.618 111.222C137.264 111.829 136.778 112.3 136.162 112.636C135.556 112.963 134.884 113.126 134.146 113.126ZM134.146 111.74C134.557 111.74 134.94 111.642 135.294 111.446C135.658 111.25 135.952 110.956 136.176 110.564C136.4 110.172 136.512 109.696 136.512 109.136C136.512 108.576 136.405 108.105 136.19 107.722C135.976 107.33 135.691 107.036 135.336 106.84C134.982 106.644 134.599 106.546 134.188 106.546C133.778 106.546 133.395 106.644 133.04 106.84C132.695 107.036 132.42 107.33 132.214 107.722C132.009 108.105 131.906 108.576 131.906 109.136C131.906 109.967 132.116 110.611 132.536 111.068C132.966 111.516 133.502 111.74 134.146 111.74Z" fill="#767171"/>
<path d="M126.614 106.588V110.858C126.614 111.147 126.679 111.357 126.81 111.488C126.95 111.609 127.183 111.67 127.51 111.67H128.49V113H127.23C126.511 113 125.96 112.832 125.578 112.496C125.195 112.16 125.004 111.614 125.004 110.858V106.588H124.094V105.286H125.004V103.368H126.614V105.286H128.49V106.588H126.614Z" fill="#767171"/>
<path d="M111.543 106.42C111.813 106.065 112.182 105.767 112.649 105.524C113.115 105.281 113.643 105.16 114.231 105.16C114.903 105.16 115.514 105.328 116.065 105.664C116.625 105.991 117.063 106.453 117.381 107.05C117.698 107.647 117.857 108.333 117.857 109.108C117.857 109.883 117.698 110.578 117.381 111.194C117.063 111.801 116.625 112.277 116.065 112.622C115.514 112.958 114.903 113.126 114.231 113.126C113.643 113.126 113.12 113.009 112.663 112.776C112.205 112.533 111.832 112.235 111.543 111.88V116.668H109.947V105.286H111.543V106.42ZM116.233 109.108C116.233 108.576 116.121 108.119 115.897 107.736C115.682 107.344 115.393 107.05 115.029 106.854C114.674 106.649 114.291 106.546 113.881 106.546C113.479 106.546 113.097 106.649 112.733 106.854C112.378 107.059 112.089 107.358 111.865 107.75C111.65 108.142 111.543 108.604 111.543 109.136C111.543 109.668 111.65 110.135 111.865 110.536C112.089 110.928 112.378 111.227 112.733 111.432C113.097 111.637 113.479 111.74 113.881 111.74C114.291 111.74 114.674 111.637 115.029 111.432C115.393 111.217 115.682 110.909 115.897 110.508C116.121 110.107 116.233 109.64 116.233 109.108Z" fill="#767171"/>
<path d="M101.214 106.42C101.485 106.065 101.853 105.767 102.32 105.524C102.787 105.281 103.314 105.16 103.902 105.16C104.574 105.16 105.185 105.328 105.736 105.664C106.296 105.991 106.735 106.453 107.052 107.05C107.369 107.647 107.528 108.333 107.528 109.108C107.528 109.883 107.369 110.578 107.052 111.194C106.735 111.801 106.296 112.277 105.736 112.622C105.185 112.958 104.574 113.126 103.902 113.126C103.314 113.126 102.791 113.009 102.334 112.776C101.877 112.533 101.503 112.235 101.214 111.88V116.668H99.6182V105.286H101.214V106.42ZM105.904 109.108C105.904 108.576 105.792 108.119 105.568 107.736C105.353 107.344 105.064 107.05 104.7 106.854C104.345 106.649 103.963 106.546 103.552 106.546C103.151 106.546 102.768 106.649 102.404 106.854C102.049 107.059 101.76 107.358 101.536 107.75C101.321 108.142 101.214 108.604 101.214 109.136C101.214 109.668 101.321 110.135 101.536 110.536C101.76 110.928 102.049 111.227 102.404 111.432C102.768 111.637 103.151 111.74 103.552 111.74C103.963 111.74 104.345 111.637 104.7 111.432C105.064 111.217 105.353 110.909 105.568 110.508C105.792 110.107 105.904 109.64 105.904 109.108Z" fill="#767171"/>
<path d="M88.7578 109.108C88.7578 108.333 88.9165 107.647 89.2338 107.05C89.5605 106.453 89.9991 105.991 90.5498 105.664C91.1098 105.328 91.7258 105.16 92.3978 105.16C93.0045 105.16 93.5318 105.281 93.9798 105.524C94.4371 105.757 94.8011 106.051 95.0718 106.406V105.286H96.6818V113H95.0718V111.852C94.8011 112.216 94.4325 112.519 93.9658 112.762C93.4991 113.005 92.9671 113.126 92.3698 113.126C91.7071 113.126 91.1005 112.958 90.5498 112.622C89.9991 112.277 89.5605 111.801 89.2338 111.194C88.9165 110.578 88.7578 109.883 88.7578 109.108ZM95.0718 109.136C95.0718 108.604 94.9598 108.142 94.7358 107.75C94.5212 107.358 94.2365 107.059 93.8818 106.854C93.5271 106.649 93.1445 106.546 92.7338 106.546C92.3232 106.546 91.9405 106.649 91.5858 106.854C91.2311 107.05 90.9418 107.344 90.7178 107.736C90.5031 108.119 90.3958 108.576 90.3958 109.108C90.3958 109.64 90.5031 110.107 90.7178 110.508C90.9418 110.909 91.2311 111.217 91.5858 111.432C91.9498 111.637 92.3325 111.74 92.7338 111.74C93.1445 111.74 93.5271 111.637 93.8818 111.432C94.2365 111.227 94.5212 110.928 94.7358 110.536C94.9598 110.135 95.0718 109.668 95.0718 109.136Z" fill="#767171"/>
<path d="M82.4025 108.954C82.4025 109.243 82.3839 109.505 82.3465 109.738H76.4525C76.4992 110.354 76.7279 110.849 77.1385 111.222C77.5492 111.595 78.0532 111.782 78.6505 111.782C79.5092 111.782 80.1159 111.423 80.4705 110.704H82.1925C81.9592 111.413 81.5345 111.997 80.9185 112.454C80.3119 112.902 79.5559 113.126 78.6505 113.126C77.9132 113.126 77.2505 112.963 76.6625 112.636C76.0839 112.3 75.6265 111.833 75.2905 111.236C74.9639 110.629 74.8005 109.929 74.8005 109.136C74.8005 108.343 74.9592 107.647 75.2765 107.05C75.6032 106.443 76.0559 105.977 76.6345 105.65C77.2225 105.323 77.8945 105.16 78.6505 105.16C79.3785 105.16 80.0272 105.319 80.5965 105.636C81.1659 105.953 81.6092 106.401 81.9265 106.98C82.2439 107.549 82.4025 108.207 82.4025 108.954ZM80.7365 108.45C80.7272 107.862 80.5172 107.391 80.1065 107.036C79.6959 106.681 79.1872 106.504 78.5805 106.504C78.0299 106.504 77.5585 106.681 77.1665 107.036C76.7745 107.381 76.5412 107.853 76.4665 108.45H80.7365Z" fill="#767171"/>
<path d="M69.3909 105.16C69.9789 105.16 70.5015 105.286 70.9589 105.538C71.4255 105.79 71.7895 106.163 72.0509 106.658C72.3215 107.153 72.4569 107.75 72.4569 108.45V113H70.8749V108.688C70.8749 107.997 70.7022 107.47 70.3569 107.106C70.0115 106.733 69.5402 106.546 68.9429 106.546C68.3455 106.546 67.8695 106.733 67.5149 107.106C67.1695 107.47 66.9969 107.997 66.9969 108.688V113H65.4009V102.64H66.9969V106.182C67.2675 105.855 67.6082 105.603 68.0189 105.426C68.4389 105.249 68.8962 105.16 69.3909 105.16Z" fill="#767171"/>
<path d="M61.2138 106.588V110.858C61.2138 111.147 61.2792 111.357 61.4099 111.488C61.5499 111.609 61.7832 111.67 62.1098 111.67H63.0899V113H61.8298C61.1112 113 60.5605 112.832 60.1778 112.496C59.7952 112.16 59.6038 111.614 59.6038 110.858V106.588H58.6938V105.286H59.6038V103.368H61.2138V105.286H63.0899V106.588H61.2138Z" fill="#767171"/>
<path d="M52.8423 105.286L50.4483 113H48.7683L47.2143 107.302L45.6603 113H43.9803L41.5723 105.286H43.1963L44.8063 111.488L46.4443 105.286H48.1103L49.6783 111.46L51.2743 105.286H52.8423Z" fill="#767171"/>
<path d="M36.0605 113.126C35.3325 113.126 34.6745 112.963 34.0865 112.636C33.4985 112.3 33.0365 111.833 32.7005 111.236C32.3645 110.629 32.1965 109.929 32.1965 109.136C32.1965 108.352 32.3692 107.657 32.7145 107.05C33.0599 106.443 33.5312 105.977 34.1285 105.65C34.7259 105.323 35.3932 105.16 36.1305 105.16C36.8679 105.16 37.5352 105.323 38.1325 105.65C38.7299 105.977 39.2012 106.443 39.5465 107.05C39.8919 107.657 40.0645 108.352 40.0645 109.136C40.0645 109.92 39.8872 110.615 39.5325 111.222C39.1779 111.829 38.6925 112.3 38.0765 112.636C37.4699 112.963 36.7979 113.126 36.0605 113.126ZM36.0605 111.74C36.4712 111.74 36.8539 111.642 37.2085 111.446C37.5725 111.25 37.8665 110.956 38.0905 110.564C38.3145 110.172 38.4265 109.696 38.4265 109.136C38.4265 108.576 38.3192 108.105 38.1045 107.722C37.8899 107.33 37.6052 107.036 37.2505 106.84C36.8959 106.644 36.5132 106.546 36.1025 106.546C35.6919 106.546 35.3092 106.644 34.9545 106.84C34.6092 107.036 34.3339 107.33 34.1285 107.722C33.9232 108.105 33.8205 108.576 33.8205 109.136C33.8205 109.967 34.0305 110.611 34.4505 111.068C34.8799 111.516 35.4165 111.74 36.0605 111.74Z" fill="#767171"/>
<path d="M29.7791 102.64V113H28.1831V102.64H29.7791Z" fill="#767171"/>
<path d="M25.2479 102.64V113H23.6519V102.64H25.2479Z" fill="#767171"/>
<path d="M18.9161 111.012H14.8421L14.1421 113H12.4761L15.9621 103.256H17.8101L21.2961 113H19.6161L18.9161 111.012ZM18.4681 109.71L16.8861 105.188L15.2901 109.71H18.4681Z" fill="#767171"/>
<path fill-rule="evenodd" clip-rule="evenodd" d="M324 80H12V79.5H324V80Z" fill="white" fill-opacity="0.24"/>
<rect x="263.5" y="105.5" width="59.3663" height="17.486" rx="8.743" stroke="#A456F6"/>
<path d="M313.366 111.646L310.972 119.36H309.292L307.738 113.662L306.184 119.36H304.504L302.096 111.646H303.72L305.33 117.848L306.968 111.646H308.634L310.202 117.82L311.798 111.646H313.366Z" fill="#A456F6"/>
<path d="M296.584 119.486C295.856 119.486 295.198 119.323 294.61 118.996C294.022 118.66 293.56 118.193 293.224 117.596C292.888 116.989 292.72 116.289 292.72 115.496C292.72 114.712 292.893 114.017 293.238 113.41C293.584 112.803 294.055 112.337 294.652 112.01C295.25 111.683 295.917 111.52 296.654 111.52C297.392 111.52 298.059 111.683 298.656 112.01C299.254 112.337 299.725 112.803 300.07 113.41C300.416 114.017 300.588 114.712 300.588 115.496C300.588 116.28 300.411 116.975 300.056 117.582C299.702 118.189 299.216 118.66 298.6 118.996C297.994 119.323 297.322 119.486 296.584 119.486ZM296.584 118.1C296.995 118.1 297.378 118.002 297.732 117.806C298.096 117.61 298.39 117.316 298.614 116.924C298.838 116.532 298.95 116.056 298.95 115.496C298.95 114.936 298.843 114.465 298.628 114.082C298.414 113.69 298.129 113.396 297.774 113.2C297.42 113.004 297.037 112.906 296.626 112.906C296.216 112.906 295.833 113.004 295.478 113.2C295.133 113.396 294.858 113.69 294.652 114.082C294.447 114.465 294.344 114.936 294.344 115.496C294.344 116.327 294.554 116.971 294.974 117.428C295.404 117.876 295.94 118.1 296.584 118.1Z" fill="#A456F6"/>
<path d="M290.303 109V119.36H288.707V109H290.303Z" fill="#A456F6"/>
<path d="M285.772 109V119.36H284.176V109H285.772Z" fill="#A456F6"/>
<path d="M279.44 117.372H275.366L274.666 119.36H273L276.486 109.616H278.334L281.82 119.36H280.14L279.44 117.372ZM278.992 116.07L277.41 111.548L275.814 116.07H278.992Z" fill="#A456F6"/>
</svg>
