<svg width="204" height="36" viewBox="0 0 204 36" fill="none" xmlns="http://www.w3.org/2000/svg">
<path d="M195.683 23.6504V31.3658H194.087V30.4556C193.835 30.773 193.504 31.025 193.093 31.2117C192.691 31.3891 192.262 31.4778 191.805 31.4778C191.198 31.4778 190.652 31.3518 190.166 31.0997C189.69 30.8477 189.312 30.4743 189.032 29.9795C188.761 29.4848 188.626 28.8873 188.626 28.1872V23.6504H190.208V27.9491C190.208 28.6399 190.381 29.172 190.726 29.5454C191.072 29.9095 191.543 30.0915 192.141 30.0915C192.738 30.0915 193.21 29.9095 193.555 29.5454C193.91 29.172 194.087 28.6399 194.087 27.9491V23.6504H195.683Z" fill="#767171"/>
<path d="M182.273 31.4918C181.545 31.4918 180.887 31.3285 180.299 31.0017C179.711 30.6657 179.249 30.1989 178.912 29.6015C178.576 28.9947 178.408 28.2946 178.408 27.5011C178.408 26.7169 178.581 26.0215 178.926 25.4147C179.272 24.8079 179.743 24.3412 180.341 24.0144C180.938 23.6877 181.606 23.5244 182.343 23.5244C183.081 23.5244 183.748 23.6877 184.345 24.0144C184.943 24.3412 185.414 24.8079 185.76 25.4147C186.105 26.0215 186.278 26.7169 186.278 27.5011C186.278 28.2852 186.1 28.9807 185.746 29.5875C185.391 30.1943 184.906 30.6657 184.289 31.0017C183.683 31.3285 183.011 31.4918 182.273 31.4918ZM182.273 30.1056C182.684 30.1056 183.067 30.0075 183.421 29.8115C183.785 29.6155 184.079 29.3214 184.303 28.9294C184.527 28.5373 184.64 28.0612 184.64 27.5011C184.64 26.941 184.532 26.4696 184.317 26.0868C184.103 25.6948 183.818 25.4007 183.463 25.2047C183.109 25.0086 182.726 24.9106 182.315 24.9106C181.904 24.9106 181.522 25.0086 181.167 25.2047C180.821 25.4007 180.546 25.6948 180.341 26.0868C180.135 26.4696 180.033 26.941 180.033 27.5011C180.033 28.3319 180.243 28.976 180.663 29.4334C181.092 29.8815 181.629 30.1056 182.273 30.1056Z" fill="#767171"/>
<path d="M176.882 23.6504L172.149 34.9924H170.497L172.065 31.2398L169.026 23.6504H170.805L172.975 29.5314L175.229 23.6504H176.882Z" fill="#767171"/>
<path d="M154.597 27.4731C154.597 26.6983 154.755 26.0121 155.073 25.4147C155.399 24.8172 155.838 24.3552 156.389 24.0284C156.949 23.6924 157.57 23.5243 158.251 23.5243C158.755 23.5243 159.25 23.6364 159.736 23.8604C160.23 24.0751 160.622 24.3645 160.912 24.7286V21.0039H162.522V31.3658H160.912V30.2036C160.65 30.577 160.286 30.885 159.82 31.1277C159.362 31.3704 158.835 31.4918 158.237 31.4918C157.565 31.4918 156.949 31.3238 156.389 30.9877C155.838 30.6423 155.399 30.1662 155.073 29.5594C154.755 28.9433 154.597 28.2479 154.597 27.4731ZM160.912 27.5011C160.912 26.969 160.8 26.5069 160.576 26.1148C160.361 25.7227 160.076 25.424 159.722 25.2186C159.367 25.0133 158.984 24.9106 158.573 24.9106C158.163 24.9106 157.78 25.0133 157.425 25.2186C157.07 25.4147 156.781 25.7087 156.557 26.1008C156.342 26.4835 156.235 26.941 156.235 27.4731C156.235 28.0052 156.342 28.4719 156.557 28.8733C156.781 29.2747 157.07 29.5828 157.425 29.7975C157.789 30.0029 158.172 30.1056 158.573 30.1056C158.984 30.1056 159.367 30.0029 159.722 29.7975C160.076 29.5921 160.361 29.2934 160.576 28.9013C160.8 28.4999 160.912 28.0332 160.912 27.5011Z" fill="#767171"/>
<path d="M149.088 23.5244C149.694 23.5244 150.236 23.6504 150.712 23.9024C151.197 24.1545 151.575 24.5279 151.846 25.0226C152.117 25.5174 152.252 26.1148 152.252 26.815V31.3658H150.67V27.053C150.67 26.3622 150.497 25.8348 150.152 25.4707C149.806 25.0973 149.335 24.9106 148.738 24.9106C148.14 24.9106 147.664 25.0973 147.309 25.4707C146.964 25.8348 146.791 26.3622 146.791 27.053V31.3658H145.195V23.6504H146.791V24.5325C147.053 24.2151 147.384 23.9678 147.785 23.7904C148.196 23.613 148.63 23.5244 149.088 23.5244Z" fill="#767171"/>
<path d="M141.475 22.6282C141.186 22.6282 140.943 22.5302 140.747 22.3342C140.551 22.1382 140.453 21.8954 140.453 21.6061C140.453 21.3167 140.551 21.074 140.747 20.8779C140.943 20.6819 141.186 20.5839 141.475 20.5839C141.755 20.5839 141.993 20.6819 142.189 20.8779C142.385 21.074 142.483 21.3167 142.483 21.6061C142.483 21.8954 142.385 22.1382 142.189 22.3342C141.993 22.5302 141.755 22.6282 141.475 22.6282ZM142.259 23.6504V31.3659H140.663V23.6504H142.259Z" fill="#767171"/>
<path d="M134.613 23.5244C135.22 23.5244 135.761 23.6504 136.237 23.9024C136.723 24.1545 137.101 24.5279 137.371 25.0226C137.651 25.5174 137.791 26.1148 137.791 26.815V31.3658H136.209V27.053C136.209 26.3622 136.036 25.8348 135.691 25.4707C135.346 25.0973 134.874 24.9106 134.277 24.9106C133.679 24.9106 133.203 25.0973 132.848 25.4707C132.503 25.8348 132.33 26.3622 132.33 27.053V31.3658H130.748V27.053C130.748 26.3622 130.575 25.8348 130.23 25.4707C129.885 25.0973 129.413 24.9106 128.816 24.9106C128.218 24.9106 127.742 25.0973 127.387 25.4707C127.042 25.8348 126.869 26.3622 126.869 27.053V31.3658H125.273V23.6504H126.869V24.5325C127.131 24.2151 127.462 23.9678 127.864 23.7904C128.265 23.613 128.694 23.5244 129.152 23.5244C129.768 23.5244 130.319 23.655 130.804 23.9164C131.29 24.1778 131.663 24.5559 131.924 25.0506C132.158 24.5839 132.522 24.2151 133.017 23.9444C133.511 23.6644 134.043 23.5244 134.613 23.5244Z" fill="#767171"/>
<path d="M122.862 27.3191C122.862 27.6084 122.843 27.8698 122.806 28.1032H116.911C116.958 28.7193 117.186 29.2141 117.597 29.5875C118.008 29.9609 118.512 30.1476 119.109 30.1476C119.968 30.1476 120.575 29.7882 120.93 29.0694H122.652C122.419 29.7788 121.994 30.3623 121.378 30.8197C120.771 31.2678 120.015 31.4918 119.109 31.4918C118.372 31.4918 117.709 31.3285 117.121 31.0017C116.542 30.6657 116.085 30.1989 115.749 29.6015C115.422 28.9947 115.259 28.2946 115.259 27.5011C115.259 26.7076 115.417 26.0121 115.735 25.4147C116.061 24.8079 116.514 24.3412 117.093 24.0144C117.681 23.6877 118.353 23.5244 119.109 23.5244C119.837 23.5244 120.486 23.6831 121.056 24.0004C121.625 24.3178 122.068 24.7659 122.386 25.3447C122.703 25.9141 122.862 26.5723 122.862 27.3191ZM121.196 26.815C121.186 26.2269 120.976 25.7554 120.566 25.4007C120.155 25.046 119.646 24.8686 119.039 24.8686C118.488 24.8686 118.017 25.046 117.625 25.4007C117.233 25.7461 117 26.2175 116.925 26.815H121.196Z" fill="#767171"/>
<path d="M111.173 24.7706C111.406 24.3785 111.714 24.0751 112.097 23.8604C112.489 23.6364 112.951 23.5244 113.483 23.5244V25.1767H113.077C112.452 25.1767 111.976 25.3354 111.649 25.6527C111.332 25.9701 111.173 26.5209 111.173 27.3051V31.3658H109.577V23.6504H111.173V24.7706Z" fill="#767171"/>
<path d="M94.2366 27.4731C94.2366 26.6983 94.3953 26.0121 94.7127 25.4147C95.0394 24.8172 95.4782 24.3552 96.0289 24.0284C96.589 23.6924 97.2098 23.5243 97.8913 23.5243C98.3954 23.5243 98.8901 23.6364 99.3756 23.8604C99.8703 24.0751 100.262 24.3645 100.552 24.7286V21.0039H102.162V31.3658H100.552V30.2036C100.29 30.577 99.9263 30.885 99.4596 31.1277C99.0022 31.3704 98.4747 31.4918 97.8773 31.4918C97.2052 31.4918 96.589 31.3238 96.0289 30.9877C95.4782 30.6423 95.0394 30.1662 94.7127 29.5594C94.3953 28.9433 94.2366 28.2479 94.2366 27.4731ZM100.552 27.5011C100.552 26.969 100.44 26.5069 100.216 26.1148C100.001 25.7227 99.7163 25.424 99.3616 25.2186C99.0068 25.0133 98.6241 24.9106 98.2133 24.9106C97.8026 24.9106 97.4199 25.0133 97.0651 25.2186C96.7104 25.4147 96.421 25.7087 96.197 26.1008C95.9823 26.4835 95.8749 26.941 95.8749 27.4731C95.8749 28.0052 95.9823 28.4719 96.197 28.8733C96.421 29.2747 96.7104 29.5828 97.0651 29.7975C97.4292 30.0029 97.8119 30.1056 98.2133 30.1056C98.6241 30.1056 99.0068 30.0029 99.3616 29.7975C99.7163 29.5921 100.001 29.2934 100.216 28.9013C100.44 28.4999 100.552 28.0332 100.552 27.5011Z" fill="#767171"/>
<path d="M88.7279 23.5244C89.3347 23.5244 89.8761 23.6504 90.3522 23.9024C90.8377 24.1545 91.2157 24.5279 91.4864 25.0226C91.7572 25.5174 91.8925 26.1148 91.8925 26.815V31.3658H90.3102V27.053C90.3102 26.3622 90.1375 25.8348 89.7921 25.4707C89.4467 25.0973 88.9753 24.9106 88.3779 24.9106C87.7804 24.9106 87.3043 25.0973 86.9496 25.4707C86.6042 25.8348 86.4315 26.3622 86.4315 27.053V31.3658H84.8352V23.6504H86.4315V24.5325C86.6929 24.2151 87.0243 23.9678 87.4257 23.7904C87.8364 23.613 88.2705 23.5244 88.7279 23.5244Z" fill="#767171"/>
<path d="M73.9729 27.4731C73.9729 26.6983 74.1316 26.0121 74.449 25.4147C74.7757 24.8173 75.2144 24.3552 75.7652 24.0284C76.3253 23.6924 76.9414 23.5244 77.6135 23.5244C78.2203 23.5244 78.7477 23.6457 79.1958 23.8884C79.6532 24.1218 80.0173 24.4159 80.288 24.7706V23.6504H81.8983V31.3658H80.288V30.2176C80.0173 30.5817 79.6486 30.885 79.1818 31.1278C78.7151 31.3705 78.183 31.4918 77.5855 31.4918C76.9227 31.4918 76.316 31.3238 75.7652 30.9877C75.2144 30.6423 74.7757 30.1662 74.449 29.5595C74.1316 28.9434 73.9729 28.2479 73.9729 27.4731ZM80.288 27.5011C80.288 26.969 80.176 26.5069 79.952 26.1148C79.7373 25.7228 79.4525 25.424 79.0978 25.2187C78.7431 25.0133 78.3603 24.9106 77.9496 24.9106C77.5389 24.9106 77.1561 25.0133 76.8014 25.2187C76.4467 25.4147 76.1573 25.7088 75.9332 26.1008C75.7185 26.4836 75.6112 26.941 75.6112 27.4731C75.6112 28.0052 75.7185 28.4719 75.9332 28.8733C76.1573 29.2747 76.4467 29.5828 76.8014 29.7975C77.1655 30.0029 77.5482 30.1056 77.9496 30.1056C78.3603 30.1056 78.7431 30.0029 79.0978 29.7975C79.4525 29.5921 79.7373 29.2934 79.952 28.9013C80.176 28.4999 80.288 28.0332 80.288 27.5011Z" fill="#767171"/>
<path d="M67.6164 27.3191C67.6164 27.6084 67.5977 27.8698 67.5604 28.1032H61.6653C61.712 28.7193 61.9407 29.2141 62.3514 29.5875C62.7622 29.9609 63.2663 30.1476 63.8637 30.1476C64.7226 30.1476 65.3293 29.7882 65.6841 29.0694H67.4064C67.173 29.7788 66.7483 30.3623 66.1321 30.8197C65.5254 31.2678 64.7692 31.4918 63.8637 31.4918C63.1263 31.4918 62.4635 31.3285 61.8754 31.0017C61.2966 30.6657 60.8392 30.1989 60.5031 29.6015C60.1764 28.9947 60.013 28.2946 60.013 27.5011C60.013 26.7076 60.1717 26.0121 60.4891 25.4147C60.8158 24.8079 61.2686 24.3412 61.8474 24.0144C62.4355 23.6877 63.1076 23.5244 63.8637 23.5244C64.5919 23.5244 65.2406 23.6831 65.8101 24.0004C66.3795 24.3178 66.8229 24.7659 67.1403 25.3447C67.4577 25.9141 67.6164 26.5723 67.6164 27.3191ZM65.9501 26.815C65.9408 26.2269 65.7307 25.7554 65.32 25.4007C64.9092 25.046 64.4005 24.8686 63.7937 24.8686C63.2429 24.8686 62.7715 25.046 62.3794 25.4007C61.9874 25.7461 61.754 26.2175 61.6793 26.815H65.9501Z" fill="#767171"/>
<path d="M53.3234 23.5244C53.9209 23.5244 54.4483 23.6457 54.9057 23.8884C55.3725 24.1218 55.7365 24.4159 55.9979 24.7706V23.6504H57.6082V31.4918C57.6082 32.2013 57.4588 32.8314 57.1601 33.3822C56.8614 33.9423 56.4273 34.381 55.8579 34.6984C55.2978 35.0158 54.6256 35.1745 53.8415 35.1745C52.796 35.1745 51.9278 34.9271 51.237 34.4324C50.5462 33.9469 50.1542 33.2842 50.0608 32.444H51.6431C51.7645 32.8454 52.0212 33.1675 52.4132 33.4102C52.8147 33.6622 53.2907 33.7882 53.8415 33.7882C54.4856 33.7882 55.0037 33.5922 55.3958 33.2001C55.7972 32.8081 55.9979 32.2386 55.9979 31.4918V30.2036C55.7272 30.5677 55.3585 30.8757 54.8917 31.1278C54.4343 31.3705 53.9115 31.4918 53.3234 31.4918C52.6513 31.4918 52.0352 31.3238 51.4751 30.9877C50.9243 30.6423 50.4856 30.1662 50.1588 29.5595C49.8414 28.9434 49.6827 28.2479 49.6827 27.4731C49.6827 26.6983 49.8414 26.0121 50.1588 25.4147C50.4856 24.8173 50.9243 24.3552 51.4751 24.0284C52.0352 23.6924 52.6513 23.5244 53.3234 23.5244ZM55.9979 27.5011C55.9979 26.969 55.8859 26.5069 55.6618 26.1148C55.4471 25.7228 55.1624 25.424 54.8077 25.2187C54.453 25.0133 54.0702 24.9106 53.6595 24.9106C53.2487 24.9106 52.866 25.0133 52.5113 25.2187C52.1565 25.4147 51.8671 25.7088 51.6431 26.1008C51.4284 26.4836 51.321 26.941 51.321 27.4731C51.321 28.0052 51.4284 28.4719 51.6431 28.8733C51.8671 29.2747 52.1565 29.5828 52.5113 29.7975C52.8753 30.0029 53.2581 30.1056 53.6595 30.1056C54.0702 30.1056 54.453 30.0029 54.8077 29.7975C55.1624 29.5921 55.4471 29.2934 55.6618 28.9013C55.8859 28.4999 55.9979 28.0332 55.9979 27.5011Z" fill="#767171"/>
<path d="M39.3527 27.4731C39.3527 26.6983 39.5114 26.0121 39.8288 25.4147C40.1555 24.8173 40.5943 24.3552 41.145 24.0284C41.7051 23.6924 42.3213 23.5244 42.9934 23.5244C43.6002 23.5244 44.1276 23.6457 44.5757 23.8884C45.0331 24.1218 45.3972 24.4159 45.6679 24.7706V23.6504H47.2782V31.3658H45.6679V30.2176C45.3972 30.5817 45.0284 30.885 44.5617 31.1278C44.0949 31.3705 43.5628 31.4918 42.9654 31.4918C42.3026 31.4918 41.6958 31.3238 41.145 30.9877C40.5943 30.6423 40.1555 30.1662 39.8288 29.5595C39.5114 28.9434 39.3527 28.2479 39.3527 27.4731ZM45.6679 27.5011C45.6679 26.969 45.5559 26.5069 45.3318 26.1148C45.1171 25.7228 44.8324 25.424 44.4777 25.2187C44.1229 25.0133 43.7402 24.9106 43.3294 24.9106C42.9187 24.9106 42.536 25.0133 42.1812 25.2187C41.8265 25.4147 41.5371 25.7088 41.3131 26.1008C41.0984 26.4836 40.991 26.941 40.991 27.4731C40.991 28.0052 41.0984 28.4719 41.3131 28.8733C41.5371 29.2747 41.8265 29.5828 42.1812 29.7975C42.5453 30.0029 42.928 30.1056 43.3294 30.1056C43.7402 30.1056 44.1229 30.0029 44.4777 29.7975C44.8324 29.5921 45.1171 29.2934 45.3318 28.9013C45.5559 28.4999 45.6679 28.0332 45.6679 27.5011Z" fill="#767171"/>
<path d="M34.3652 31.4918C33.7585 31.4918 33.2124 31.3845 32.727 31.1698C32.2509 30.9457 31.8728 30.647 31.5927 30.2736C31.3127 29.8909 31.1633 29.4661 31.1447 28.9994H32.797C32.825 29.3261 32.979 29.6015 33.259 29.8255C33.5484 30.0402 33.9078 30.1476 34.3372 30.1476C34.7853 30.1476 35.1307 30.0636 35.3734 29.8955C35.6255 29.7182 35.7515 29.4941 35.7515 29.2234C35.7515 28.934 35.6115 28.7193 35.3314 28.5793C35.0607 28.4393 34.6266 28.2852 34.0292 28.1172C33.4504 27.9585 32.979 27.8045 32.6149 27.6551C32.2509 27.5058 31.9335 27.277 31.6628 26.969C31.4014 26.6609 31.2707 26.2549 31.2707 25.7508C31.2707 25.34 31.392 24.9666 31.6347 24.6306C31.8775 24.2852 32.2229 24.0144 32.6709 23.8184C33.1284 23.6224 33.6511 23.5244 34.2392 23.5244C35.1167 23.5244 35.8215 23.7484 36.3536 24.1965C36.8951 24.6352 37.1844 25.2373 37.2218 26.0028H35.6255C35.5975 25.6574 35.4575 25.382 35.2054 25.1767C34.9534 24.9713 34.6126 24.8686 34.1832 24.8686C33.7631 24.8686 33.4411 24.948 33.217 25.1066C32.993 25.2653 32.881 25.4754 32.881 25.7368C32.881 25.9421 32.9557 26.1148 33.105 26.2549C33.2544 26.3949 33.4364 26.5069 33.6511 26.5909C33.8658 26.6656 34.1832 26.7636 34.6033 26.885C35.1634 27.0343 35.6208 27.1884 35.9755 27.3471C36.3396 27.4964 36.6523 27.7205 36.9137 28.0192C37.1751 28.3179 37.3105 28.7146 37.3198 29.2094C37.3198 29.6481 37.1984 30.0402 36.9557 30.3856C36.713 30.731 36.3676 31.0017 35.9195 31.1978C35.4808 31.3938 34.9627 31.4918 34.3652 31.4918Z" fill="#767171"/>
<path d="M26.0451 31.4918C25.4383 31.4918 24.8922 31.3845 24.4068 31.1698C23.9307 30.9457 23.5527 30.647 23.2726 30.2736C22.9926 29.8909 22.8432 29.4661 22.8245 28.9994H24.4768C24.5048 29.3261 24.6589 29.6015 24.9389 29.8255C25.2283 30.0402 25.5877 30.1476 26.0171 30.1476C26.4652 30.1476 26.8106 30.0636 27.0533 29.8955C27.3053 29.7182 27.4314 29.4941 27.4314 29.2234C27.4314 28.934 27.2913 28.7193 27.0113 28.5793C26.7406 28.4393 26.3065 28.2852 25.7091 28.1172C25.1303 27.9585 24.6589 27.8045 24.2948 27.6551C23.9307 27.5058 23.6133 27.277 23.3426 26.969C23.0812 26.6609 22.9505 26.2549 22.9505 25.7508C22.9505 25.34 23.0719 24.9666 23.3146 24.6306C23.5573 24.2852 23.9027 24.0144 24.3508 23.8184C24.8082 23.6224 25.331 23.5244 25.9191 23.5244C26.7966 23.5244 27.5014 23.7484 28.0335 24.1965C28.5749 24.6352 28.8643 25.2373 28.9016 26.0028H27.3053C27.2773 25.6574 27.1373 25.382 26.8853 25.1767C26.6332 24.9713 26.2925 24.8686 25.8631 24.8686C25.443 24.8686 25.1209 24.948 24.8969 25.1066C24.6729 25.2653 24.5608 25.4754 24.5608 25.7368C24.5608 25.9421 24.6355 26.1148 24.7849 26.2549C24.9342 26.3949 25.1163 26.5069 25.331 26.5909C25.5457 26.6656 25.8631 26.7636 26.2832 26.885C26.8433 27.0343 27.3007 27.1884 27.6554 27.3471C28.0195 27.4964 28.3322 27.7205 28.5936 28.0192C28.855 28.3179 28.9903 28.7146 28.9997 29.2094C28.9997 29.6481 28.8783 30.0402 28.6356 30.3856C28.3929 30.731 28.0475 31.0017 27.5994 31.1978C27.1607 31.3938 26.6426 31.4918 26.0451 31.4918Z" fill="#767171"/>
<path d="M20.8336 27.3191C20.8336 27.6084 20.815 27.8698 20.7776 28.1032H14.8825C14.9292 28.7193 15.1579 29.2141 15.5687 29.5875C15.9794 29.9609 16.4835 30.1476 17.0809 30.1476C17.9398 30.1476 18.5465 29.7882 18.9013 29.0694H20.6236C20.3902 29.7788 19.9655 30.3623 19.3493 30.8197C18.7426 31.2678 17.9864 31.4918 17.0809 31.4918C16.3435 31.4918 15.6807 31.3285 15.0926 31.0017C14.5138 30.6657 14.0564 30.1989 13.7203 29.6015C13.3936 28.9947 13.2302 28.2946 13.2302 27.5011C13.2302 26.7076 13.3889 26.0121 13.7063 25.4147C14.033 24.8079 14.4858 24.3412 15.0646 24.0144C15.6527 23.6877 16.3248 23.5244 17.0809 23.5244C17.8091 23.5244 18.4579 23.6831 19.0273 24.0004C19.5967 24.3178 20.0401 24.7659 20.3575 25.3447C20.6749 25.9141 20.8336 26.5723 20.8336 27.3191ZM19.1673 26.815C19.158 26.2269 18.9479 25.7554 18.5372 25.4007C18.1265 25.046 17.6177 24.8686 17.0109 24.8686C16.4602 24.8686 15.9887 25.046 15.5967 25.4007C15.2046 25.7461 14.9712 26.2175 14.8965 26.815H19.1673Z" fill="#767171"/>
<path d="M10.824 21.6339V31.3657H9.22768V24.7004L6.25913 31.3657H5.15292L2.17037 24.7004V31.3657H0.57408V21.6339H2.2964L5.71303 29.2653L9.11566 21.6339H10.824Z" fill="#767171"/>
<path d="M202.124 3.94875V8.21954C202.124 8.50893 202.189 8.71897 202.32 8.84966C202.46 8.97101 202.693 9.03169 203.02 9.03169H204V10.3619H202.74C202.021 10.3619 201.47 10.1939 201.087 9.85784C200.705 9.52178 200.513 8.97568 200.513 8.21954V3.94875H199.603V2.64652H200.513V0.728162H202.124V2.64652H204V3.94875H202.124Z" fill="#767171"/>
<path d="M195.738 6.45519L198.231 10.3619H196.424L194.758 7.74342L193.19 10.3619H191.523L194.016 6.56721L191.523 2.64648H193.33L194.996 5.26497L196.564 2.64648H198.231L195.738 6.45519Z" fill="#767171"/>
<path d="M190.023 6.31518C190.023 6.60457 190.004 6.86595 189.966 7.09933H184.071C184.118 7.71544 184.347 8.2102 184.758 8.5836C185.168 8.957 185.672 9.1437 186.27 9.1437C187.129 9.1437 187.735 8.7843 188.09 8.06551H189.812C189.579 8.77497 189.154 9.35841 188.538 9.81583C187.931 10.2639 187.175 10.488 186.27 10.488C185.532 10.488 184.87 10.3246 184.281 9.99786C183.703 9.6618 183.245 9.19505 182.909 8.5976C182.582 7.99083 182.419 7.2907 182.419 6.49722C182.419 5.70374 182.578 5.00828 182.895 4.41083C183.222 3.80405 183.675 3.3373 184.253 3.01057C184.842 2.68385 185.514 2.52048 186.27 2.52048C186.998 2.52048 187.647 2.67918 188.216 2.99657C188.786 3.31396 189.229 3.76205 189.546 4.34082C189.864 4.91026 190.023 5.56838 190.023 6.31518ZM188.356 5.81109C188.347 5.22298 188.137 4.75156 187.726 4.39683C187.315 4.0421 186.807 3.86473 186.2 3.86473C185.649 3.86473 185.178 4.0421 184.786 4.39683C184.393 4.74223 184.16 5.21365 184.085 5.81109H188.356Z" fill="#767171"/>
<path d="M178.763 3.94875V8.21954C178.763 8.50893 178.829 8.71897 178.959 8.84966C179.099 8.97101 179.333 9.03169 179.66 9.03169H180.64V10.3619H179.38C178.661 10.3619 178.11 10.1939 177.727 9.85784C177.344 9.52178 177.153 8.97568 177.153 8.21954V3.94875H176.243V2.64652H177.153V0.728162H178.763V2.64652H180.64V3.94875H178.763Z" fill="#767171"/>
<path d="M161.561 6.46919C161.561 5.69438 161.72 5.00826 162.037 4.41081C162.364 3.81337 162.803 3.35128 163.354 3.02456C163.914 2.6885 164.534 2.52046 165.216 2.52046C165.72 2.52046 166.215 2.63249 166.7 2.85653C167.195 3.07123 167.587 3.36062 167.876 3.72469V0H169.487V10.3619H167.876V9.1997C167.615 9.5731 167.251 9.88115 166.784 10.1239C166.327 10.3666 165.799 10.4879 165.202 10.4879C164.53 10.4879 163.914 10.3199 163.354 9.98384C162.803 9.63844 162.364 9.16236 162.037 8.55558C161.72 7.93946 161.561 7.244 161.561 6.46919ZM167.876 6.4972C167.876 5.9651 167.764 5.50301 167.54 5.11094C167.326 4.71887 167.041 4.42015 166.686 4.21478C166.331 4.00941 165.949 3.90672 165.538 3.90672C165.127 3.90672 164.745 4.00941 164.39 4.21478C164.035 4.41081 163.746 4.70487 163.522 5.09694C163.307 5.47968 163.2 5.93709 163.2 6.46919C163.2 7.00129 163.307 7.46804 163.522 7.86945C163.746 8.27086 164.035 8.57891 164.39 8.79362C164.754 8.99899 165.137 9.10168 165.538 9.10168C165.949 9.10168 166.331 8.99899 166.686 8.79362C167.041 8.58825 167.326 8.28953 167.54 7.89746C167.764 7.49605 167.876 7.0293 167.876 6.4972Z" fill="#767171"/>
<path d="M151.231 6.46921C151.231 5.6944 151.39 5.00828 151.707 4.41083C152.034 3.81339 152.473 3.3513 153.023 3.02458C153.583 2.68852 154.2 2.52048 154.872 2.52048C155.478 2.52048 156.006 2.64184 156.454 2.88455C156.911 3.11793 157.275 3.41198 157.546 3.76671V2.64651H159.156V10.3619H157.546V9.21372C157.275 9.57778 156.907 9.88117 156.44 10.1239C155.973 10.3666 155.441 10.488 154.844 10.488C154.181 10.488 153.574 10.3199 153.023 9.98386C152.473 9.63846 152.034 9.16238 151.707 8.5556C151.39 7.93948 151.231 7.24402 151.231 6.46921ZM157.546 6.49722C157.546 5.96512 157.434 5.50303 157.21 5.11096C156.995 4.71889 156.711 4.42017 156.356 4.2148C156.001 4.00943 155.618 3.90674 155.208 3.90674C154.797 3.90674 154.414 4.00943 154.06 4.2148C153.705 4.41083 153.415 4.70489 153.191 5.09696C152.977 5.4797 152.869 5.93711 152.869 6.46921C152.869 7.00131 152.977 7.46806 153.191 7.86947C153.415 8.27088 153.705 8.57893 154.06 8.79364C154.424 8.99901 154.806 9.1017 155.208 9.1017C155.618 9.1017 156.001 8.99901 156.356 8.79364C156.711 8.58827 156.995 8.28955 157.21 7.89748C157.434 7.49607 157.546 7.02931 157.546 6.49722Z" fill="#767171"/>
<path d="M149.352 6.31518C149.352 6.60457 149.334 6.86595 149.296 7.09933H143.401C143.448 7.71544 143.676 8.2102 144.087 8.5836C144.498 8.957 145.002 9.1437 145.599 9.1437C146.458 9.1437 147.065 8.7843 147.42 8.06551H149.142C148.909 8.77497 148.484 9.35841 147.868 9.81583C147.261 10.2639 146.505 10.488 145.599 10.488C144.862 10.488 144.199 10.3246 143.611 9.99786C143.032 9.6618 142.575 9.19505 142.239 8.5976C141.912 7.99083 141.749 7.2907 141.749 6.49722C141.749 5.70374 141.907 5.00828 142.225 4.41083C142.552 3.80405 143.004 3.3373 143.583 3.01057C144.171 2.68385 144.843 2.52048 145.599 2.52048C146.328 2.52048 146.976 2.67918 147.546 2.99657C148.115 3.31396 148.559 3.76205 148.876 4.34082C149.193 4.91026 149.352 5.56838 149.352 6.31518ZM147.686 5.81109C147.677 5.22298 147.467 4.75156 147.056 4.39683C146.645 4.0421 146.136 3.86473 145.529 3.86473C144.979 3.86473 144.507 4.0421 144.115 4.39683C143.723 4.74223 143.49 5.21365 143.415 5.81109H147.686Z" fill="#767171"/>
<path d="M137.648 10.3618L135.408 6.46908H134.19V10.3618H132.593V0.629999H135.954C136.701 0.629999 137.331 0.760689 137.844 1.02207C138.367 1.28345 138.754 1.63352 139.006 2.07227C139.268 2.51101 139.399 3.0011 139.399 3.54254C139.399 4.17732 139.212 4.75609 138.838 5.27886C138.474 5.79228 137.91 6.14235 137.144 6.32905L139.553 10.3618H137.648ZM134.19 5.19484H135.954C136.551 5.19484 136.999 5.04548 137.298 4.74676C137.606 4.44804 137.76 4.04663 137.76 3.54254C137.76 3.03844 137.611 2.64637 137.312 2.36632C137.013 2.07693 136.561 1.93224 135.954 1.93224H134.19V5.19484Z" fill="#767171"/>
<path d="M121.693 10.488C120.965 10.488 120.307 10.3246 119.718 9.99786C119.13 9.6618 118.668 9.19505 118.332 8.5976C117.996 7.99083 117.828 7.2907 117.828 6.49722C117.828 5.71307 118.001 5.01761 118.346 4.41083C118.692 3.80405 119.163 3.3373 119.76 3.01057C120.358 2.68385 121.025 2.52048 121.763 2.52048C122.5 2.52048 123.168 2.68385 123.765 3.01057C124.363 3.3373 124.834 3.80405 125.179 4.41083C125.525 5.01761 125.698 5.71307 125.698 6.49722C125.698 7.28136 125.52 7.97682 125.165 8.5836C124.811 9.19038 124.325 9.6618 123.709 9.99786C123.102 10.3246 122.43 10.488 121.693 10.488ZM121.693 9.1017C122.104 9.1017 122.486 9.00368 122.841 8.80764C123.205 8.61161 123.499 8.31755 123.723 7.92548C123.947 7.53341 124.059 7.05732 124.059 6.49722C124.059 5.93711 123.952 5.46569 123.737 5.08296C123.522 4.69088 123.238 4.39683 122.883 4.20079C122.528 4.00476 122.146 3.90674 121.735 3.90674C121.324 3.90674 120.941 4.00476 120.587 4.20079C120.241 4.39683 119.966 4.69088 119.76 5.08296C119.555 5.46569 119.452 5.93711 119.452 6.49722C119.452 7.32804 119.662 7.97216 120.083 8.42957C120.512 8.87766 121.049 9.1017 121.693 9.1017Z" fill="#767171"/>
<path d="M114.158 3.94875V8.21954C114.158 8.50893 114.224 8.71897 114.355 8.84966C114.495 8.97101 114.728 9.03169 115.055 9.03169H116.035V10.3619H114.775C114.056 10.3619 113.505 10.1939 113.122 9.85784C112.74 9.52178 112.548 8.97568 112.548 8.21954V3.94875H111.638V2.64652H112.548V0.728162H114.158V2.64652H116.035V3.94875H114.158Z" fill="#767171"/>
<path d="M99.0847 3.78072C99.3554 3.42598 99.7242 3.12726 100.191 2.88455C100.658 2.64184 101.185 2.52048 101.773 2.52048C102.445 2.52048 103.057 2.68852 103.608 3.02458C104.168 3.3513 104.606 3.81339 104.924 4.41083C105.241 5.00828 105.4 5.6944 105.4 6.46921C105.4 7.24402 105.241 7.93948 104.924 8.5556C104.606 9.16238 104.168 9.63846 103.608 9.98386C103.057 10.3199 102.445 10.488 101.773 10.488C101.185 10.488 100.662 10.3713 100.205 10.1379C99.7475 9.89518 99.3741 9.59646 99.0847 9.24172V14.0306H97.4884V2.64651H99.0847V3.78072ZM103.776 6.46921C103.776 5.93711 103.664 5.4797 103.44 5.09696C103.225 4.70489 102.935 4.41083 102.571 4.2148C102.217 4.00943 101.834 3.90674 101.423 3.90674C101.022 3.90674 100.639 4.00943 100.275 4.2148C99.9202 4.42017 99.6308 4.71889 99.4068 5.11096C99.1921 5.50303 99.0847 5.96512 99.0847 6.49722C99.0847 7.02931 99.1921 7.49607 99.4068 7.89748C99.6308 8.28955 99.9202 8.58827 100.275 8.79364C100.639 8.99901 101.022 9.1017 101.423 9.1017C101.834 9.1017 102.217 8.99901 102.571 8.79364C102.935 8.57893 103.225 8.27088 103.44 7.86947C103.664 7.46806 103.776 7.00131 103.776 6.46921Z" fill="#767171"/>
<path d="M88.7544 3.78072C89.0252 3.42598 89.3939 3.12726 89.8606 2.88455C90.3274 2.64184 90.8548 2.52048 91.4429 2.52048C92.1151 2.52048 92.7265 2.68852 93.2773 3.02458C93.8374 3.3513 94.2761 3.81339 94.5935 4.41083C94.9109 5.00828 95.0696 5.6944 95.0696 6.46921C95.0696 7.24402 94.9109 7.93948 94.5935 8.5556C94.2761 9.16238 93.8374 9.63846 93.2773 9.98386C92.7265 10.3199 92.1151 10.488 91.4429 10.488C90.8548 10.488 90.3321 10.3713 89.8746 10.1379C89.4172 9.89518 89.0438 9.59646 88.7544 9.24172V14.0306H87.1582V2.64651H88.7544V3.78072ZM93.4453 6.46921C93.4453 5.93711 93.3333 5.4797 93.1092 5.09696C92.8945 4.70489 92.6052 4.41083 92.2411 4.2148C91.8864 4.00943 91.5036 3.90674 91.0929 3.90674C90.6915 3.90674 90.3087 4.00943 89.9447 4.2148C89.5899 4.42017 89.3005 4.71889 89.0765 5.11096C88.8618 5.50303 88.7544 5.96512 88.7544 6.49722C88.7544 7.02931 88.8618 7.49607 89.0765 7.89748C89.3005 8.28955 89.5899 8.58827 89.9447 8.79364C90.3087 8.99901 90.6915 9.1017 91.0929 9.1017C91.5036 9.1017 91.8864 8.99901 92.2411 8.79364C92.6052 8.57893 92.8945 8.27088 93.1092 7.86947C93.3333 7.46806 93.4453 7.00131 93.4453 6.46921Z" fill="#767171"/>
<path d="M76.2958 6.46921C76.2958 5.6944 76.4545 5.00828 76.7719 4.41083C77.0986 3.81339 77.5374 3.3513 78.0881 3.02458C78.6482 2.68852 79.2643 2.52048 79.9365 2.52048C80.5432 2.52048 81.0707 2.64184 81.5188 2.88455C81.9762 3.11793 82.3403 3.41198 82.611 3.76671V2.64651H84.2213V10.3619H82.611V9.21372C82.3403 9.57778 81.9715 9.88117 81.5048 10.1239C81.038 10.3666 80.5059 10.488 79.9085 10.488C79.2457 10.488 78.6389 10.3199 78.0881 9.98386C77.5374 9.63846 77.0986 9.16238 76.7719 8.5556C76.4545 7.93948 76.2958 7.24402 76.2958 6.46921ZM82.611 6.49722C82.611 5.96512 82.4989 5.50303 82.2749 5.11096C82.0602 4.71889 81.7755 4.42017 81.4207 4.2148C81.066 4.00943 80.6833 3.90674 80.2725 3.90674C79.8618 3.90674 79.4791 4.00943 79.1243 4.2148C78.7696 4.41083 78.4802 4.70489 78.2562 5.09696C78.0415 5.4797 77.9341 5.93711 77.9341 6.46921C77.9341 7.00131 78.0415 7.46806 78.2562 7.86947C78.4802 8.27088 78.7696 8.57893 79.1243 8.79364C79.4884 8.99901 79.8711 9.1017 80.2725 9.1017C80.6833 9.1017 81.066 8.99901 81.4207 8.79364C81.7755 8.58827 82.0602 8.28955 82.2749 7.89748C82.4989 7.49607 82.611 7.02931 82.611 6.49722Z" fill="#767171"/>
<path d="M69.9394 6.31518C69.9394 6.60457 69.9207 6.86595 69.8833 7.09933H63.9883C64.0349 7.71544 64.2636 8.2102 64.6744 8.5836C65.0851 8.957 65.5892 9.1437 66.1867 9.1437C67.0455 9.1437 67.6523 8.7843 68.007 8.06551H69.7293C69.4959 8.77497 69.0712 9.35841 68.4551 9.81583C67.8483 10.2639 67.0922 10.488 66.1867 10.488C65.4492 10.488 64.7864 10.3246 64.1983 9.99786C63.6195 9.6618 63.1621 9.19505 62.826 8.5976C62.4993 7.99083 62.336 7.2907 62.336 6.49722C62.336 5.70374 62.4946 5.00828 62.812 4.41083C63.1388 3.80405 63.5915 3.3373 64.1703 3.01057C64.7584 2.68385 65.4305 2.52048 66.1867 2.52048C66.9148 2.52048 67.5636 2.67918 68.133 2.99657C68.7025 3.31396 69.1459 3.76205 69.4633 4.34082C69.7807 4.91026 69.9394 5.56838 69.9394 6.31518ZM68.273 5.81109C68.2637 5.22298 68.0537 4.75156 67.6429 4.39683C67.2322 4.0421 66.7234 3.86473 66.1166 3.86473C65.5659 3.86473 65.0945 4.0421 64.7024 4.39683C64.3103 4.74223 64.0769 5.21365 64.0023 5.81109H68.273Z" fill="#767171"/>
<path d="M56.9253 2.52046C57.5134 2.52046 58.0362 2.64649 58.4936 2.89853C58.9603 3.15058 59.3244 3.52398 59.5858 4.01874C59.8565 4.5135 59.9919 5.11094 59.9919 5.81107V10.3619H58.4096V6.04911C58.4096 5.35832 58.2369 4.83089 57.8915 4.46682C57.5461 4.09342 57.0747 3.90672 56.4772 3.90672C55.8798 3.90672 55.4037 4.09342 55.049 4.46682C54.7036 4.83089 54.5309 5.35832 54.5309 6.04911V10.3619H52.9346V0H54.5309V3.54265C54.8016 3.21593 55.1423 2.96388 55.553 2.78651C55.9731 2.60915 56.4305 2.52046 56.9253 2.52046Z" fill="#767171"/>
<path d="M48.7468 3.94875V8.21954C48.7468 8.50893 48.8121 8.71897 48.9428 8.84966C49.0828 8.97101 49.3162 9.03169 49.6429 9.03169H50.6231V10.3619H49.3629C48.6441 10.3619 48.0933 10.1939 47.7106 9.85784C47.3278 9.52178 47.1365 8.97568 47.1365 8.21954V3.94875H46.2263V2.64652H47.1365V0.728162H48.7468V2.64652H50.6231V3.94875H48.7468Z" fill="#767171"/>
<path d="M40.3736 2.64648L37.9792 10.3619H36.2989L34.7446 4.66286L33.1903 10.3619H31.51L29.1016 2.64648H30.7259L32.3362 8.84963L33.9745 2.64648H35.6408L37.2091 8.82162L38.8053 2.64648H40.3736Z" fill="#767171"/>
<path d="M23.5888 10.488C22.8607 10.488 22.2026 10.3246 21.6144 9.99786C21.0263 9.6618 20.5642 9.19505 20.2282 8.5976C19.8921 7.99083 19.7241 7.2907 19.7241 6.49722C19.7241 5.71307 19.8968 5.01761 20.2422 4.41083C20.5876 3.80405 21.059 3.3373 21.6565 3.01057C22.2539 2.68385 22.9214 2.52048 23.6588 2.52048C24.3963 2.52048 25.0637 2.68385 25.6612 3.01057C26.2586 3.3373 26.7301 3.80405 27.0754 4.41083C27.4208 5.01761 27.5935 5.71307 27.5935 6.49722C27.5935 7.28136 27.4162 7.97682 27.0614 8.5836C26.7067 9.19038 26.2213 9.6618 25.6052 9.99786C24.9984 10.3246 24.3263 10.488 23.5888 10.488ZM23.5888 9.1017C23.9995 9.1017 24.3823 9.00368 24.737 8.80764C25.1011 8.61161 25.3951 8.31755 25.6192 7.92548C25.8432 7.53341 25.9552 7.05732 25.9552 6.49722C25.9552 5.93711 25.8479 5.46569 25.6332 5.08296C25.4185 4.69088 25.1338 4.39683 24.779 4.20079C24.4243 4.00476 24.0416 3.90674 23.6308 3.90674C23.2201 3.90674 22.8373 4.00476 22.4826 4.20079C22.1372 4.39683 21.8618 4.69088 21.6565 5.08296C21.4511 5.46569 21.3484 5.93711 21.3484 6.49722C21.3484 7.32804 21.5584 7.97216 21.9785 8.42957C22.4079 8.87766 22.9447 9.1017 23.5888 9.1017Z" fill="#767171"/>
<path d="M17.3062 0V10.3619H15.7099V0H17.3062Z" fill="#767171"/>
<path d="M12.7741 0V10.3619H11.1778V0H12.7741Z" fill="#767171"/>
<path d="M6.44119 8.37375H2.36644L1.66631 10.3621H0L3.48664 0.616325H5.33498L8.82163 10.3621H7.14132L6.44119 8.37375ZM5.99311 7.07151L4.41081 2.54868L2.81452 7.07151H5.99311Z" fill="#767171"/>
</svg>
