<svg width="73" height="62" viewBox="0 0 73 62" fill="none" xmlns="http://www.w3.org/2000/svg">
<path d="M69.7339 1.38233C68.9108 0.806112 67.9823 0.397782 67.0014 0.180664C66.0205 -0.0364535 65.0064 -0.0581052 64.0172 0.116948C63.0279 0.292 62.0828 0.660326 61.2358 1.20089C60.3889 1.74145 59.6567 2.44365 59.081 3.26739L29.9991 44.82L10.9309 31.7886C9.40151 30.742 7.51923 30.346 5.6981 30.6879C3.87697 31.0297 2.26616 32.0814 1.22003 33.6114C0.173907 35.1415 -0.221843 37.0247 0.119844 38.8467C0.461531 40.6687 1.51267 42.2802 3.04201 43.3268L28.602 60.7936C29.3892 61.3312 30.2789 61.7005 31.2153 61.8783C32.1517 62.0562 33.1147 62.0389 34.0441 61.8274C35.0354 61.654 35.9828 61.2866 36.8319 60.7462C37.681 60.2058 38.4151 59.5031 38.9922 58.6782L71.6192 12.0461C72.7821 10.3809 73.2365 8.32205 72.8828 6.32183C72.5291 4.3216 71.3961 2.54371 69.7328 1.37884" fill="white"/>
</svg>
