<svg width="57" height="14" viewBox="0 0 57 14" fill="none" xmlns="http://www.w3.org/2000/svg">
<path d="M56.9241 5.72246H54.3005V9.90502C54.3005 10.6782 54.3575 11.1915 54.4716 11.445C54.5856 11.6985 54.8771 11.8252 55.3461 11.8252L56.9051 11.7682L57.0001 13.4222C56.1509 13.5869 55.5045 13.6693 55.0609 13.6693C53.9836 13.6693 53.2421 13.4222 52.8366 12.9279C52.4437 12.4336 52.2472 11.502 52.2472 10.1332V5.72246H51.0305V3.95438H52.2472V1.19769H54.3005V3.95438H56.9241V5.72246Z" fill="white"/>
<path d="M47.2242 13.4603V3.95443H49.2965V13.4603H47.2242ZM47.2242 2.33844V0.152103H49.2965V2.33844H47.2242Z" fill="white"/>
<path d="M33.3667 13.4601H31.2944V3.95429H33.3477V4.54365C34.2475 4.01132 35.0714 3.74516 35.8192 3.74516C36.9218 3.74516 37.7267 4.05568 38.2336 4.67673C39.387 4.05568 40.5341 3.74516 41.6748 3.74516C42.8155 3.74516 43.6203 4.10005 44.0892 4.80981C44.5582 5.50691 44.7927 6.69197 44.7927 8.36499V13.4601H42.7394V8.42203C42.7394 7.3954 42.6317 6.66662 42.4162 6.23569C42.2134 5.80476 41.7825 5.58929 41.1234 5.58929C40.5531 5.58929 39.9384 5.71603 39.2793 5.96952L38.9561 6.1026C39.0575 6.35609 39.1082 7.16726 39.1082 8.5361V13.4601H37.0549V8.57412C37.0549 7.44609 36.9535 6.66662 36.7507 6.23569C36.5479 5.80476 36.1043 5.58929 35.4199 5.58929C34.7862 5.58929 34.1968 5.71603 33.6518 5.96952L33.3667 6.08359V13.4601Z" fill="white"/>
<path d="M25.5315 3.74529C26.837 3.74529 27.7749 4.11285 28.3452 4.84797C28.9283 5.57041 29.2198 6.85687 29.2198 8.70733C29.2198 10.5578 28.8776 11.8506 28.1931 12.5857C27.5087 13.3082 26.3047 13.6694 24.5809 13.6694C23.9852 13.6694 23.041 13.6123 21.7482 13.4983L21.1018 13.4412V0H23.1551V4.31564C24.0296 3.93541 24.8217 3.74529 25.5315 3.74529ZM24.5809 11.8252C25.5949 11.8252 26.2666 11.5908 26.5962 11.1218C26.9384 10.6402 27.1095 9.82902 27.1095 8.68832C27.1095 7.54762 26.9637 6.74913 26.6722 6.29285C26.3934 5.8239 25.9308 5.58942 25.2844 5.58942C24.676 5.58942 24.0676 5.68448 23.4592 5.8746L23.1551 5.96966V11.7492C23.8521 11.7999 24.3274 11.8252 24.5809 11.8252Z" fill="white"/>
<path d="M16.5396 3.95418H18.5928V13.46H16.5396V12.8706C15.6143 13.403 14.7588 13.6691 13.973 13.6691C12.6675 13.6691 11.793 13.3206 11.3494 12.6235C10.9058 11.9137 10.684 10.678 10.684 8.91622V3.95418H12.7563V8.93523C12.7563 10.0759 12.8513 10.8427 13.0414 11.2356C13.2315 11.6285 13.6752 11.825 14.3722 11.825C15.0567 11.825 15.6841 11.6983 16.2544 11.4448L16.5396 11.3307V3.95418Z" fill="white"/>
<path d="M4.52477 2.07216C2.91512 2.07216 2.11029 2.63617 2.11029 3.7642C2.11029 4.34722 2.30041 4.76548 2.68064 5.01896C3.06087 5.25978 3.89739 5.56397 5.19018 5.93152C6.49565 6.28641 7.41454 6.71734 7.94687 7.22432C8.47919 7.71862 8.74536 8.50443 8.74536 9.58176C8.74536 10.9506 8.35245 11.9772 7.56663 12.6616C6.79349 13.3334 5.73518 13.6693 4.39169 13.6693C3.31436 13.6693 2.12297 13.5425 0.817501 13.289L0.133081 13.1559L0.34221 11.4639C2.05326 11.6921 3.35872 11.8061 4.25861 11.8061C5.83024 11.8061 6.61605 11.109 6.61605 9.71484C6.61605 9.16984 6.43861 8.7706 6.08373 8.51711C5.72884 8.25094 4.93035 7.96577 3.68826 7.66158C2.44617 7.34472 1.52093 6.91379 0.912559 6.36879C0.304186 5.82379 0 4.96193 0 3.78321C0 2.60449 0.380233 1.71728 1.1407 1.12158C1.91384 0.513205 2.97849 0.209019 4.33466 0.209019C5.31059 0.209019 6.46396 0.323089 7.79477 0.551229L8.46018 0.665298L8.28908 2.37635C6.51466 2.17355 5.25989 2.07216 4.52477 2.07216Z" fill="white"/>
</svg>
