<svg width="20" height="15" viewBox="0 0 20 15" fill="none" xmlns="http://www.w3.org/2000/svg">
<path d="M19.1779 7.51086C19.1874 7.52778 19.1904 7.54298 19.1903 7.55609C19.1902 7.56924 19.1868 7.58482 19.1767 7.60216L19.83 7.98349L19.1767 7.60217C18.3534 9.01269 15.3613 13.3642 9.97341 13.3642C4.58552 13.3642 1.59341 9.01269 0.77013 7.60217C0.760006 7.58482 0.75663 7.56924 0.756505 7.55609C0.75638 7.54298 0.759432 7.52778 0.768912 7.51086L0.118386 7.14638L0.768913 7.51086C1.55569 6.10662 4.44647 1.76508 9.97341 1.76508C15.5003 1.76508 18.3911 6.10662 19.1779 7.51086Z" fill="white" stroke="white" stroke-width="1.5"/>
<path d="M14.0581 8.3211C14.0581 10.1315 12.5905 11.5991 10.7801 11.5991C8.96971 11.5991 7.50209 10.1315 7.50209 8.3211C7.50209 6.51071 8.96971 5.04309 10.7801 5.04309C12.5905 5.04309 14.0581 6.51071 14.0581 8.3211Z" fill="black" stroke="white" stroke-width="1.5"/>
<line x1="14.6234" y1="0.439686" x2="4.53725" y2="14.5603" stroke="white" stroke-width="1.5"/>
</svg>
