<svg width="21" height="26" viewBox="0 0 21 26" fill="none" xmlns="http://www.w3.org/2000/svg">
<path opacity="0.5" d="M11.1548 24.5034L10.6712 23.6282L11.1548 24.5034C11.5492 24.2855 13.0727 23.4212 14.7141 22.1878C16.3247 20.9774 18.1866 19.3114 19.1121 17.4631C19.5654 16.5577 19.7985 15.457 19.9104 14.3474C20.0234 13.2264 20.0187 12.0306 19.9562 10.896C19.8312 8.62727 19.4702 6.52309 19.2955 5.6025C19.1755 4.96999 18.758 4.45962 18.2026 4.1955L12.2984 1.38778C11.2115 0.870925 9.94968 0.870925 8.8628 1.38778L2.93268 4.20782C2.40739 4.45762 2.00033 4.92988 1.86044 5.52842C1.65193 6.42055 1.21072 8.50473 1.0558 10.7844C0.905456 12.9968 1.004 15.6316 2.06225 17.4891C2.99209 19.3271 4.84406 20.9831 6.4471 22.1878C8.08847 23.4212 9.61201 24.2855 10.0064 24.5034C10.3659 24.7021 10.7953 24.7021 11.1548 24.5034Z" stroke="#9C52EA" stroke-width="2"/>
</svg>
