<svg width="24" height="24" viewBox="0 0 24 24" fill="none" xmlns="http://www.w3.org/2000/svg">
<path d="M12 5C11.2044 5 10.4413 5.31607 9.87868 5.87868C9.31607 6.44129 9 7.20435 9 8V21.4C9 21.4788 9.01552 21.5568 9.04567 21.6296C9.07583 21.7024 9.12002 21.7685 9.17574 21.8243C9.23145 21.88 9.29759 21.9242 9.37039 21.9543C9.44319 21.9845 9.52121 22 9.6 22H14.4C14.4788 22 14.5568 21.9845 14.6296 21.9543C14.7024 21.9242 14.7685 21.88 14.8243 21.8243C14.88 21.7685 14.9242 21.7024 14.9543 21.6296C14.9845 21.5568 15 21.4788 15 21.4V8C15 7.20435 14.6839 6.44129 14.1213 5.87868C13.5587 5.31607 12.7956 5 12 5ZM12 5V2M9 11H15M12 2H11M12 2H13" stroke="#A456F6" stroke-width="1.5" stroke-linecap="round"/>
</svg>
