<svg width="20" height="13" viewBox="0 0 20 13" fill="none" xmlns="http://www.w3.org/2000/svg">
<path d="M19.014 6.44668C19.0234 6.46345 19.0265 6.47852 19.0263 6.49152C19.0262 6.50456 19.0229 6.52001 19.0128 6.5372L19.6606 6.91527L19.0128 6.53721C18.1966 7.93568 15.23 12.25 9.88818 12.25C4.54634 12.25 1.5798 7.93568 0.763549 6.53721C0.753512 6.52001 0.750165 6.50456 0.750041 6.49152C0.749917 6.47852 0.752943 6.46345 0.762342 6.44668L0.117374 6.08531L0.762342 6.44668C1.5424 5.05444 4.40847 0.75 9.88818 0.75C15.3679 0.75 18.234 5.05444 19.014 6.44668Z" fill="white" stroke="white" stroke-width="1.5"/>
<path d="M12.138 6.35C12.138 7.64787 11.0859 8.7 9.78799 8.7C8.49012 8.7 7.43799 7.64787 7.43799 6.35C7.43799 5.05213 8.49012 4 9.78799 4C11.0859 4 12.138 5.05213 12.138 6.35Z" fill="black" stroke="white" stroke-width="1.5"/>
</svg>
