<svg width="31" height="21" viewBox="0 0 31 21" fill="none" xmlns="http://www.w3.org/2000/svg">
<mask id="path-1-inside-1_1_796" fill="white">
<rect x="4.59262" width="26.4073" height="13.334" rx="1"/>
</mask>
<rect x="4.59262" width="26.4073" height="13.334" rx="1" stroke="#A456F6" stroke-width="3" mask="url(#path-1-inside-1_1_796)"/>
<path d="M23.9094 17.5951L20.4897 20.3337M23.9094 17.5951L20.8438 14.5401M23.9094 17.5951L13.7779 17.5951" stroke="#A456F6" stroke-width="1.5"/>
<path d="M19.5193 7.89412C19.5193 8.17858 19.4389 8.44662 19.278 8.69826C19.1232 8.94443 18.8908 9.14957 18.5811 9.31368C18.2773 9.47232 17.9169 9.56531 17.5 9.59267L17.5 10.2573L16.9281 10.2573L16.9281 9.58446C16.3325 9.53523 15.8529 9.37112 15.4896 9.09213C15.1262 8.80767 14.9386 8.42474 14.9267 7.94335L16.2669 7.94335C16.3027 8.33722 16.5231 8.57518 16.9281 8.65723L16.9281 7.08997C16.4992 6.9915 16.1538 6.89304 15.8917 6.79457C15.6296 6.6961 15.4032 6.53746 15.2126 6.31865C15.022 6.09983 14.9267 5.8017 14.9267 5.42424C14.9267 4.94832 15.1113 4.55992 15.4807 4.25905C15.8559 3.95818 16.3384 3.78587 16.9281 3.7421L16.9281 3.07745L17.5 3.07745L17.5 3.7421C18.0718 3.78587 18.5275 3.94451 18.867 4.21803C19.2125 4.49154 19.4061 4.869 19.4478 5.35039L18.0986 5.35039C18.0807 5.19175 18.0182 5.05499 17.911 4.94011C17.8097 4.81977 17.6727 4.73498 17.5 4.68574L17.5 6.23659C17.9467 6.34053 18.2982 6.44173 18.5543 6.5402C18.8164 6.6332 19.0427 6.7891 19.2334 7.00792C19.424 7.22126 19.5193 7.51666 19.5193 7.89412ZM16.2312 5.3668C16.2312 5.54733 16.2908 5.69503 16.4099 5.8099C16.529 5.91931 16.7018 6.00957 16.9281 6.08069L16.9281 4.66113C16.7137 4.68848 16.5439 4.76233 16.4188 4.88268C16.2937 5.00302 16.2312 5.1644 16.2312 5.3668ZM17.5 8.67364C17.7263 8.63535 17.902 8.55056 18.0271 8.41927C18.1582 8.28798 18.2237 8.12934 18.2237 7.94335C18.2237 7.76283 18.1612 7.61786 18.0361 7.50845C17.911 7.39905 17.7323 7.30879 17.5 7.23767L17.5 8.67364Z" fill="#A456F6"/>
<line x1="2.29717" y1="3.60073" x2="8.0379" y2="3.60073" stroke="#A456F6"/>
<line x1="1.1476" y1="5.65219" x2="6.88833" y2="5.65219" stroke="#A456F6"/>
<line y1="7.70365" x2="5.74073" y2="7.70365" stroke="#A456F6"/>
</svg>
