<svg width="20" height="14" viewBox="0 0 20 14" fill="none" xmlns="http://www.w3.org/2000/svg">
<path d="M9.21843 9.67444H9.78585H13.5621C13.5979 9.67444 13.6308 9.69038 13.6524 9.71883C14.5224 10.8653 16.5826 13.0711 18.1499 13.0791C18.1557 13.0792 18.1616 13.0787 18.1673 13.0778C21.8433 12.4927 19.5735 0.594717 15.0375 0.0277155C13.3469 -0.183564 11.6563 0.864303 10.5215 1.43451C10.5057 1.44242 10.4887 1.44635 10.4711 1.44635H9.52871C9.51118 1.44632 9.49421 1.44238 9.47853 1.43451C8.34371 0.864303 6.65312 -0.183564 4.96249 0.0277158C0.426478 0.594717 -1.8433 12.4927 1.83266 13.0778C1.83836 13.0787 1.8443 13.0792 1.85008 13.0791C3.41744 13.0711 5.47756 10.8653 6.34763 9.71883C6.36923 9.69038 6.40215 9.67444 6.43787 9.67444H9.21843Z" fill="#A456F6"/>
<path d="M4.82324 3.10701C5.13664 2.79361 5.64475 2.79361 5.95815 3.10701V7.07919C5.64475 7.39258 5.13664 7.39258 4.82324 7.07919V3.10701Z" fill="white"/>
<path d="M3.40437 5.66064C3.09097 5.34725 3.09097 4.83913 3.40437 4.52574L7.37655 4.52574C7.68995 4.83913 7.68995 5.34725 7.37655 5.66064L3.40437 5.66064Z" fill="white"/>
<circle cx="14.1861" cy="3.39073" r="0.851182" fill="white"/>
<circle cx="16.4566" cy="5.09337" r="0.851182" fill="white"/>
<circle cx="14.1861" cy="6.22813" r="0.851182" fill="white"/>
</svg>
