<svg width="41" height="11" viewBox="0 0 41 11" fill="none" xmlns="http://www.w3.org/2000/svg">
<path d="M41 2.68754L38.5684 10.5227H36.862L35.2836 4.73519L33.7052 10.5227H31.9988L29.553 2.68754H31.2025L32.8378 8.98692L34.5015 2.68754H36.1937L37.7863 8.95848L39.4074 2.68754H41Z" fill="#A456F6"/>
<path d="M23.9548 10.6507C23.2153 10.6507 22.547 10.4848 21.9498 10.153C21.3525 9.81169 20.8833 9.3377 20.542 8.73099C20.2007 8.11479 20.0301 7.4038 20.0301 6.59801C20.0301 5.8017 20.2055 5.09545 20.5562 4.47926C20.907 3.86307 21.3857 3.38908 21.9924 3.05728C22.5991 2.72548 23.2769 2.55959 24.0259 2.55959C24.7748 2.55959 25.4526 2.72548 26.0593 3.05728C26.666 3.38908 27.1447 3.86307 27.4955 4.47926C27.8462 5.09545 28.0216 5.8017 28.0216 6.59801C28.0216 7.39432 27.8415 8.10057 27.4813 8.71677C27.121 9.33296 26.6281 9.81169 26.0024 10.153C25.3862 10.4848 24.7037 10.6507 23.9548 10.6507ZM23.9548 9.2429C24.3719 9.2429 24.7605 9.14336 25.1208 8.94428C25.4905 8.74521 25.7891 8.44659 26.0166 8.04843C26.2441 7.65028 26.3579 7.16681 26.3579 6.59801C26.3579 6.02922 26.2489 5.55049 26.0309 5.16181C25.8128 4.76366 25.5237 4.46504 25.1634 4.26596C24.8032 4.06689 24.4145 3.96735 23.9974 3.96735C23.5803 3.96735 23.1916 4.06689 22.8314 4.26596C22.4806 4.46504 22.201 4.76366 21.9924 5.16181C21.7839 5.55049 21.6796 6.02922 21.6796 6.59801C21.6796 7.44172 21.8929 8.09583 22.3195 8.56035C22.7556 9.01538 23.3006 9.2429 23.9548 9.2429Z" fill="#A456F6"/>
<path d="M17.5747 0V10.5227H15.9536V0H17.5747Z" fill="#A456F6"/>
<path d="M12.9723 0V10.5227H11.3513V0H12.9723Z" fill="#A456F6"/>
<path d="M6.54111 8.50366H2.40315L1.69216 10.5229H0L3.54073 0.625886H5.41775L8.95848 10.5229H7.25211L6.54111 8.50366ZM6.08608 7.18122L4.47924 2.58822L2.85818 7.18122H6.08608Z" fill="#A456F6"/>
</svg>
