<svg width="21" height="27" viewBox="0 0 21 27" fill="none" xmlns="http://www.w3.org/2000/svg">
<path d="M6 13.0148L9.45144 16.0828C9.53363 16.1559 9.6594 16.1488 9.73297 16.0671L15 10.2148" stroke="#9EAFB7" stroke-width="2" stroke-linecap="round"/>
<path opacity="0.5" d="M10.5804 24.2148C11.0524 25.0964 11.0526 25.0963 11.0528 25.0962L11.0533 25.0959L11.0547 25.0952L11.0591 25.0928L11.0741 25.0847L11.1287 25.0549C11.1756 25.0291 11.2432 24.9915 11.329 24.943C11.5006 24.8458 11.7455 24.7042 12.0439 24.5237C12.6397 24.1632 13.4538 23.6445 14.3266 23.011C16.0311 21.7737 18.1162 19.989 19.112 18.0001C19.6399 16.9459 19.8723 15.6193 19.9582 14.3058C20.0452 12.9746 19.9865 11.5661 19.8739 10.2934C19.761 9.01733 19.5921 7.85707 19.4516 7.01671C19.3813 6.5959 19.3179 6.25375 19.2718 6.01556C19.2487 5.89644 19.23 5.80321 19.2168 5.73904L19.2015 5.66495L19.1973 5.64496L19.1961 5.63936L19.1957 5.63768L19.1956 5.63712C19.1956 5.63691 19.1955 5.63674 18.2178 5.84681L19.1955 5.63674L19.0921 5.15523L18.6473 4.94372L11.0098 1.31176L10.5804 1.10753L10.1509 1.31176L2.51342 4.94372L2.09457 5.1429L1.97607 5.5913L2.94288 5.84681C1.97607 5.5913 1.97602 5.5915 1.97595 5.59173L1.97579 5.59235L1.97532 5.59414L1.97381 5.59989L1.96859 5.62003L1.9498 5.69384C1.93376 5.75756 1.91096 5.84987 1.88295 5.96773C1.82696 6.20336 1.75006 6.54161 1.66484 6.9581C1.49471 7.78959 1.28992 8.94032 1.15305 10.2134C1.01658 11.4828 0.945016 12.8972 1.05093 14.2497C1.15498 15.5783 1.43592 16.9276 2.06181 18.0262C3.06274 20.0046 5.13706 21.7791 6.83415 23.011C7.7069 23.6445 8.52098 24.1632 9.11685 24.5237C9.41524 24.7042 9.6601 24.8458 9.83171 24.943C9.91754 24.9915 9.98513 25.0291 10.032 25.0549L10.0866 25.0847L10.1016 25.0928L10.106 25.0952L10.1074 25.0959L10.1079 25.0962C10.1081 25.0963 10.1083 25.0964 10.5804 24.2148ZM10.5804 24.2148L11.0524 25.0964L10.5804 25.3492L10.1083 25.0964L10.5804 24.2148Z" stroke="#9EAFB7" stroke-width="2"/>
</svg>
