<svg width="20" height="21" viewBox="0 0 20 21" fill="none" xmlns="http://www.w3.org/2000/svg">
<path d="M16.1746 -1.31133e-07L15.8399 -1.45761e-07L7.92019 -4.91945e-07L3.00041 -7.06996e-07C1.34357 -7.79418e-07 0.000440534 1.34313 0.000440461 2.99996L0.000440016 13.1876C0.000439952 14.6522 1.19367 15.8395 2.65829 15.8395L11.3923 15.8395L15.8399 15.8395L16.1746 15.8395C17.8315 15.8395 19.1746 14.4964 19.1746 12.8395L19.1746 2.99997C19.1746 1.34313 17.8315 -5.87101e-08 16.1746 -1.31133e-07Z" fill="#A456F6"/>
<path d="M12.5047 7.08597C12.5047 5.47451 13.8111 4.16816 15.4225 4.16816H19.174V10.0038H15.4225C13.8111 10.0038 12.5047 8.69743 12.5047 7.08597Z" fill="white"/>
<circle cx="16.0478" cy="6.8777" r="1.04207" fill="#A456F6"/>
<circle cx="7.17781" cy="15.792" r="5.20811" fill="white"/>
<line x1="7.18351" y1="13.9544" x2="7.18351" y2="17.2945" stroke="#A456F6" stroke-linecap="round"/>
<line x1="5.4472" y1="15.5584" x2="8.78731" y2="15.5584" stroke="#A456F6" stroke-linecap="round"/>
</svg>
