<svg width="25" height="25" viewBox="0 0 25 25" fill="none" xmlns="http://www.w3.org/2000/svg">
<path d="M14.3659 19.0414L19.6812 19.0414V19.0414C21.8822 19.0414 23.6664 17.2572 23.6664 15.0562L23.6664 4.73689C23.6664 2.53594 21.8822 0.751717 19.6812 0.751718V0.751718L10.2164 0.751717L6.7654 0.751717C3.4441 0.751717 0.751658 3.44416 0.751658 6.76546L0.751657 15.9793V15.9793C0.751657 17.6704 2.12263 19.0414 3.8138 19.0414L3.92801 19.0414" stroke="#A456F6" stroke-width="1.5"/>
<path d="M16.4477 8.93387C16.4477 7.4883 17.6196 6.31644 19.0652 6.31644H20.2972C21.7428 6.31644 22.9146 7.4883 22.9146 8.93387C22.9146 10.3794 21.7428 11.5513 20.2972 11.5513H19.0652C17.6196 11.5513 16.4477 10.3794 16.4477 8.93387Z" fill="#A456F6" stroke="#A456F6" stroke-width="1.5"/>
<ellipse cx="19.9302" cy="8.69328" rx="1.24537" ry="1.20327" fill="#A456F6"/>
<line x1="9.24035" y1="16.7884" x2="9.24035" y2="20.7975" stroke="#A456F6" stroke-linecap="round"/>
<line x1="7.16554" y1="18.7929" x2="11.35" y2="18.7929" stroke="#A456F6" stroke-linecap="round"/>
<path d="M14.8015 18.9863C14.8015 21.8682 12.376 24.2483 9.32913 24.2483C6.28222 24.2483 3.85671 21.8682 3.85671 18.9863C3.85671 16.1043 6.28222 13.7242 9.32913 13.7242C12.376 13.7242 14.8015 16.1043 14.8015 18.9863Z" stroke="#A456F6" stroke-width="1.5"/>
</svg>
